<svg width="16" height="17" viewBox="0 0 16 17" fill="none" xmlns="http://www.w3.org/2000/svg">
<path d="M8 0.5C9.08333 0.5 10.119 0.71131 11.1071 1.13393C12.0952 1.55655 12.9464 2.125 13.6607 2.83929C14.375 3.55357 14.9435 4.40476 15.3661 5.39286C15.7887 6.38095 16 7.41667 16 8.5C16 9.58333 15.7887 10.619 15.3661 11.6071C14.9435 12.5952 14.375 13.4464 13.6607 14.1607C12.9464 14.875 12.0952 15.4435 11.1071 15.8661C10.119 16.2887 9.08333 16.5 8 16.5C6.91667 16.5 5.88095 16.2887 4.89286 15.8661C3.90476 15.4435 3.05357 14.875 2.33929 14.1607C1.625 13.4464 1.05655 12.5952 0.633929 11.6071C0.21131 10.619 0 9.58333 0 8.5C0 7.41667 0.21131 6.38095 0.633929 5.39286C1.05655 4.40476 1.625 3.55357 2.33929 2.83929C3.05357 2.125 3.90476 1.55655 4.89286 1.13393C5.88095 0.71131 6.91667 0.5 8 0.5ZM8 1.64286C6.86905 1.64286 5.79464 1.91071 4.77679 2.44643L6.50893 4.17857C6.99702 4.0119 7.49405 3.92857 8 3.92857C8.50595 3.92857 9.00298 4.0119 9.49107 4.17857L11.2232 2.44643C10.2054 1.91071 9.13095 1.64286 8 1.64286ZM1.94643 11.7232L3.67857 9.99107C3.5119 9.50298 3.42857 9.00595 3.42857 8.5C3.42857 7.99405 3.5119 7.49702 3.67857 7.00893L1.94643 5.27679C1.41071 6.29464 1.14286 7.36905 1.14286 8.5C1.14286 9.63095 1.41071 10.7054 1.94643 11.7232ZM8 15.3571C9.13095 15.3571 10.2054 15.0893 11.2232 14.5536L9.49107 12.8214C9.00298 12.9881 8.50595 13.0714 8 13.0714C7.49405 13.0714 6.99702 12.9881 6.50893 12.8214L4.77679 14.5536C5.79464 15.0893 6.86905 15.3571 8 15.3571ZM8 11.9286C8.94643 11.9286 9.75447 11.5938 10.4241 10.9241C11.0938 10.2545 11.4286 9.44643 11.4286 8.5C11.4286 7.55357 11.0938 6.74554 10.4241 6.07589C9.75447 5.40625 8.94643 5.07143 8 5.07143C7.05357 5.07143 6.24554 5.40625 5.57589 6.07589C4.90625 6.74554 4.57143 7.55357 4.57143 8.5C4.57143 9.44643 4.90625 10.2545 5.57589 10.9241C6.24554 11.5938 7.05357 11.9286 8 11.9286ZM12.3214 9.99107L14.0536 11.7232C14.5893 10.7054 14.8571 9.63095 14.8571 8.5C14.8571 7.36905 14.5893 6.29464 14.0536 5.27679L12.3214 7.00893C12.4881 7.49702 12.5714 7.99405 12.5714 8.5C12.5714 9.00595 12.4881 9.50298 12.3214 9.99107Z" fill="#45518A"/>
</svg>
