<svg width="15" height="15" viewBox="0 0 15 15" fill="none" xmlns="http://www.w3.org/2000/svg">
<path d="M10.232 2.32339C10.4326 2.28962 10.6409 2.33507 10.7841 2.44984C12.9742 3.94103 14.1669 5.91033 14.1669 7.97713C14.1669 10.0871 12.9742 12.0599 10.7841 13.5504C10.6591 13.6519 10.4794 13.7002 10.2997 13.6849C10.1175 13.6697 9.94818 13.5935 9.82058 13.4691L5.04453 8.83025C4.8987 8.6906 4.81797 8.50017 4.79453 8.29959C4.79453 8.10154 4.8987 7.91111 5.04193 7.76892C5.18776 7.62927 5.38307 7.54802 5.5862 7.54802C5.79193 7.54802 5.98724 7.62673 6.13047 7.76638L10.43 11.9406C11.8518 10.8056 12.6253 9.42185 12.6253 7.97713C12.6253 6.41306 11.6643 4.87439 9.91953 3.67748C9.75287 3.56271 9.63828 3.38777 9.60443 3.1915C9.56797 2.99523 9.61485 2.79337 9.73464 2.63062C9.85182 2.46787 10.0315 2.35742 10.232 2.32339ZM4.86745 13.6773C4.66693 13.7103 4.4612 13.6646 4.29193 13.5504C2.12708 12.0599 0.933594 10.0871 0.933594 7.97713C0.933594 5.91033 2.12708 3.94103 4.29193 2.44984C4.44037 2.34802 4.62005 2.30054 4.80234 2.31552C4.98203 2.3305 5.1513 2.40693 5.27891 2.5316L10.055 7.1697C10.2008 7.30935 10.2815 7.49978 10.2815 7.70037C10.2841 7.87556 10.2034 8.08884 10.0576 8.23103C9.91433 8.37068 9.71901 8.45193 9.51328 8.45193C9.31016 8.45193 9.09141 8.37322 8.96901 8.23357L4.66953 4.05681C3.24766 5.20447 2.475 6.57556 2.475 7.97713C2.475 9.58689 3.43516 11.1256 5.15912 12.3215C5.34922 12.4383 5.4612 12.6109 5.49766 12.809C5.53151 13.0045 5.48464 13.2076 5.36745 13.3701C5.25026 13.5326 5.07057 13.6418 4.86745 13.6773Z" fill="#EE8100"/>
</svg>
