<svg width="30" height="29" viewBox="0 0 30 29" fill="none" xmlns="http://www.w3.org/2000/svg">
<path d="M15.9334 1.84694C15.6228 1.824 15.3115 1.81252 15 1.8125V0C15.3562 0.000173687 15.7123 0.0134744 16.0676 0.039875L15.9334 1.84694ZM19.5657 2.66256C18.9847 2.43836 18.388 2.25723 17.7804 2.12063L18.1773 0.351625C18.8715 0.5075 19.5548 0.714125 20.2182 0.9715L19.5657 2.66256ZM22.0488 3.94944C21.7897 3.77661 21.5243 3.61338 21.2531 3.46006L22.1467 1.88319C22.7664 2.23433 23.3595 2.63052 23.9211 3.06856L22.8064 4.49863C22.5607 4.30692 22.308 4.12434 22.0488 3.95125V3.94944ZM25.3729 7.19381C25.0144 6.68446 24.6188 6.20223 24.1894 5.75106L25.5016 4.50044C25.991 5.017 26.4441 5.56981 26.8556 6.14981L25.3729 7.19381ZM26.7214 9.64431C26.6025 9.35696 26.4731 9.07402 26.3336 8.79606L27.9521 7.98044C28.2722 8.61678 28.5448 9.27591 28.7678 9.95244L27.0459 10.5197C26.9485 10.2241 26.8403 9.93206 26.7214 9.64431ZM27.6821 14.1883C27.6674 13.5654 27.6068 12.9444 27.5008 12.3304L29.2861 12.0223C29.4076 12.7219 29.4783 13.4324 29.4964 14.1429L27.6839 14.1883H27.6821ZM27.4446 16.9759C27.5044 16.6677 27.5534 16.3614 27.5914 16.0515L29.3913 16.2744C29.3042 16.9816 29.1649 17.6813 28.9744 18.3679L27.2271 17.8839C27.3105 17.5849 27.383 17.2822 27.4446 16.9759ZM25.7191 21.2878C26.0526 20.7622 26.3462 20.2112 26.6 19.6421L28.2566 20.3761C27.9666 21.0286 27.6313 21.6558 27.2507 22.2575L25.7191 21.2878ZM23.9719 23.4719C24.193 23.2507 24.4051 23.0224 24.6063 22.7867L25.9801 23.9703C25.7475 24.2401 25.505 24.5012 25.2533 24.7533L23.9719 23.4719Z" fill="#595EA5"/>
<path d="M14.9979 1.8125C12.9114 1.81265 10.8573 2.32733 9.01728 3.31096C7.17729 4.29459 5.60828 5.71681 4.4492 7.45164C3.29013 9.18647 2.57678 11.1804 2.37233 13.2567C2.16788 15.3331 2.47864 17.4278 3.2771 19.3554C4.07555 21.283 5.33705 22.9839 6.94985 24.3075C8.56266 25.6311 10.477 26.5366 12.5233 26.9437C14.5696 27.3507 16.6847 27.2469 18.6813 26.6413C20.6779 26.0357 22.4943 24.9471 23.9697 23.4719L25.2512 24.7533C23.5651 26.4403 21.4889 27.6855 19.2065 28.3783C16.9242 29.0712 14.5062 29.1904 12.1668 28.7254C9.82744 28.2604 7.63884 27.2255 5.79497 25.7125C3.9511 24.1995 2.50888 22.2551 1.59611 20.0515C0.683329 17.8479 0.328175 15.4532 0.56211 13.0795C0.796045 10.7058 1.61185 8.42649 2.93723 6.44347C4.26262 4.46045 6.05667 2.83495 8.16042 1.71101C10.2642 0.58706 12.6127 -0.000632077 14.9979 5.10143e-07V1.8125Z" fill="#595EA5"/>
<path d="M14.0938 5.4375C14.3341 5.4375 14.5646 5.53298 14.7346 5.70293C14.9045 5.87289 15 6.1034 15 6.34375V15.7869L20.887 19.1509C21.0896 19.2731 21.2364 19.4698 21.296 19.6988C21.3555 19.9278 21.3231 20.171 21.2057 20.3765C21.0883 20.5819 20.8952 20.7333 20.6677 20.7983C20.4401 20.8633 20.1962 20.8366 19.988 20.7241L13.6442 17.0991C13.5055 17.0199 13.3902 16.9054 13.31 16.7673C13.2298 16.6291 13.1876 16.4722 13.1875 16.3125V6.34375C13.1875 6.1034 13.283 5.87289 13.4529 5.70293C13.6229 5.53298 13.8534 5.4375 14.0938 5.4375Z" fill="#595EA5"/>
</svg>
