<svg width="38" height="22" viewBox="0 0 38 22" fill="none" xmlns="http://www.w3.org/2000/svg">
<path d="M33.25 2.875C33.8799 2.875 34.484 3.12522 34.9294 3.57062C35.3748 4.01602 35.625 4.62011 35.625 5.25V17.125C35.625 17.7549 35.3748 18.359 34.9294 18.8044C34.484 19.2498 33.8799 19.5 33.25 19.5H4.75C4.12011 19.5 3.51602 19.2498 3.07062 18.8044C2.62522 18.359 2.375 17.7549 2.375 17.125V5.25C2.375 4.62011 2.62522 4.01602 3.07062 3.57062C3.51602 3.12522 4.12011 2.875 4.75 2.875H33.25ZM4.75 0.5C3.49022 0.5 2.28204 1.00044 1.39124 1.89124C0.500445 2.78204 0 3.99022 0 5.25L0 17.125C0 18.3848 0.500445 19.593 1.39124 20.4838C2.28204 21.3746 3.49022 21.875 4.75 21.875H33.25C34.5098 21.875 35.718 21.3746 36.6088 20.4838C37.4996 19.593 38 18.3848 38 17.125V5.25C38 3.99022 37.4996 2.78204 36.6088 1.89124C35.718 1.00044 34.5098 0.5 33.25 0.5H4.75Z" fill="#6E7494"/>
<path d="M30.875 15.3438C30.875 15.1863 30.9376 15.0353 31.0489 14.9239C31.1603 14.8126 31.3113 14.75 31.4688 14.75H32.6562C32.8137 14.75 32.9647 14.8126 33.0761 14.9239C33.1874 15.0353 33.25 15.1863 33.25 15.3438V16.5312C33.25 16.6887 33.1874 16.8397 33.0761 16.9511C32.9647 17.0624 32.8137 17.125 32.6562 17.125H31.4688C31.3113 17.125 31.1603 17.0624 31.0489 16.9511C30.9376 16.8397 30.875 16.6887 30.875 16.5312V15.3438ZM30.875 10.5938C30.875 10.4363 30.9376 10.2853 31.0489 10.1739C31.1603 10.0626 31.3113 10 31.4688 10H32.6562C32.8137 10 32.9647 10.0626 33.0761 10.1739C33.1874 10.2853 33.25 10.4363 33.25 10.5938V11.7812C33.25 11.9387 33.1874 12.0897 33.0761 12.2011C32.9647 12.3124 32.8137 12.375 32.6562 12.375H31.4688C31.3113 12.375 31.1603 12.3124 31.0489 12.2011C30.9376 12.0897 30.875 11.9387 30.875 11.7812V10.5938ZM19 10.5938C19 10.4363 19.0626 10.2853 19.1739 10.1739C19.2853 10.0626 19.4363 10 19.5938 10H20.7812C20.9387 10 21.0897 10.0626 21.2011 10.1739C21.3124 10.2853 21.375 10.4363 21.375 10.5938V11.7812C21.375 11.9387 21.3124 12.0897 21.2011 12.2011C21.0897 12.3124 20.9387 12.375 20.7812 12.375H19.5938C19.4363 12.375 19.2853 12.3124 19.1739 12.2011C19.0626 12.0897 19 11.9387 19 11.7812V10.5938ZM23.75 10.5938C23.75 10.4363 23.8126 10.2853 23.9239 10.1739C24.0353 10.0626 24.1863 10 24.3438 10H27.9062C28.0637 10 28.2147 10.0626 28.3261 10.1739C28.4374 10.2853 28.5 10.4363 28.5 10.5938V11.7812C28.5 11.9387 28.4374 12.0897 28.3261 12.2011C28.2147 12.3124 28.0637 12.375 27.9062 12.375H24.3438C24.1863 12.375 24.0353 12.3124 23.9239 12.2011C23.8126 12.0897 23.75 11.9387 23.75 11.7812V10.5938ZM26.125 15.3438C26.125 15.1863 26.1876 15.0353 26.2989 14.9239C26.4103 14.8126 26.5613 14.75 26.7188 14.75H27.9062C28.0637 14.75 28.2147 14.8126 28.3261 14.9239C28.4374 15.0353 28.5 15.1863 28.5 15.3438V16.5312C28.5 16.6887 28.4374 16.8397 28.3261 16.9511C28.2147 17.0624 28.0637 17.125 27.9062 17.125H26.7188C26.5613 17.125 26.4103 17.0624 26.2989 16.9511C26.1876 16.8397 26.125 16.6887 26.125 16.5312V15.3438ZM14.25 10.5938C14.25 10.4363 14.3126 10.2853 14.4239 10.1739C14.5353 10.0626 14.6863 10 14.8438 10H16.0312C16.1887 10 16.3397 10.0626 16.4511 10.1739C16.5624 10.2853 16.625 10.4363 16.625 10.5938V11.7812C16.625 11.9387 16.5624 12.0897 16.4511 12.2011C16.3397 12.3124 16.1887 12.375 16.0312 12.375H14.8438C14.6863 12.375 14.5353 12.3124 14.4239 12.2011C14.3126 12.0897 14.25 11.9387 14.25 11.7812V10.5938ZM9.5 10.5938C9.5 10.4363 9.56256 10.2853 9.6739 10.1739C9.78525 10.0626 9.93628 10 10.0938 10H11.2812C11.4387 10 11.5897 10.0626 11.7011 10.1739C11.8124 10.2853 11.875 10.4363 11.875 10.5938V11.7812C11.875 11.9387 11.8124 12.0897 11.7011 12.2011C11.5897 12.3124 11.4387 12.375 11.2812 12.375H10.0938C9.93628 12.375 9.78525 12.3124 9.6739 12.2011C9.56256 12.0897 9.5 11.9387 9.5 11.7812V10.5938ZM4.75 10.5938C4.75 10.4363 4.81256 10.2853 4.92391 10.1739C5.03526 10.0626 5.18628 10 5.34375 10H6.53125C6.68872 10 6.83974 10.0626 6.95109 10.1739C7.06244 10.2853 7.125 10.4363 7.125 10.5938V11.7812C7.125 11.9387 7.06244 12.0897 6.95109 12.2011C6.83974 12.3124 6.68872 12.375 6.53125 12.375H5.34375C5.18628 12.375 5.03526 12.3124 4.92391 12.2011C4.81256 12.0897 4.75 11.9387 4.75 11.7812V10.5938ZM30.875 5.84375C30.875 5.68628 30.9376 5.53525 31.0489 5.4239C31.1603 5.31256 31.3113 5.25 31.4688 5.25H32.6562C32.8137 5.25 32.9647 5.31256 33.0761 5.4239C33.1874 5.53525 33.25 5.68628 33.25 5.84375V7.03125C33.25 7.18872 33.1874 7.33975 33.0761 7.4511C32.9647 7.56244 32.8137 7.625 32.6562 7.625H31.4688C31.3113 7.625 31.1603 7.56244 31.0489 7.4511C30.9376 7.33975 30.875 7.18872 30.875 7.03125V5.84375ZM26.125 5.84375C26.125 5.68628 26.1876 5.53525 26.2989 5.4239C26.4103 5.31256 26.5613 5.25 26.7188 5.25H27.9062C28.0637 5.25 28.2147 5.31256 28.3261 5.4239C28.4374 5.53525 28.5 5.68628 28.5 5.84375V7.03125C28.5 7.18872 28.4374 7.33975 28.3261 7.4511C28.2147 7.56244 28.0637 7.625 27.9062 7.625H26.7188C26.5613 7.625 26.4103 7.56244 26.2989 7.4511C26.1876 7.33975 26.125 7.18872 26.125 7.03125V5.84375ZM21.375 5.84375C21.375 5.68628 21.4376 5.53525 21.5489 5.4239C21.6603 5.31256 21.8113 5.25 21.9688 5.25H23.1562C23.3137 5.25 23.4647 5.31256 23.5761 5.4239C23.6874 5.53525 23.75 5.68628 23.75 5.84375V7.03125C23.75 7.18872 23.6874 7.33975 23.5761 7.4511C23.4647 7.56244 23.3137 7.625 23.1562 7.625H21.9688C21.8113 7.625 21.6603 7.56244 21.5489 7.4511C21.4376 7.33975 21.375 7.18872 21.375 7.03125V5.84375ZM16.625 5.84375C16.625 5.68628 16.6876 5.53525 16.7989 5.4239C16.9103 5.31256 17.0613 5.25 17.2188 5.25H18.4062C18.5637 5.25 18.7147 5.31256 18.8261 5.4239C18.9374 5.53525 19 5.68628 19 5.84375V7.03125C19 7.18872 18.9374 7.33975 18.8261 7.4511C18.7147 7.56244 18.5637 7.625 18.4062 7.625H17.2188C17.0613 7.625 16.9103 7.56244 16.7989 7.4511C16.6876 7.33975 16.625 7.18872 16.625 7.03125V5.84375ZM11.875 5.84375C11.875 5.68628 11.9376 5.53525 12.0489 5.4239C12.1603 5.31256 12.3113 5.25 12.4688 5.25H13.6562C13.8137 5.25 13.9647 5.31256 14.0761 5.4239C14.1874 5.53525 14.25 5.68628 14.25 5.84375V7.03125C14.25 7.18872 14.1874 7.33975 14.0761 7.4511C13.9647 7.56244 13.8137 7.625 13.6562 7.625H12.4688C12.3113 7.625 12.1603 7.56244 12.0489 7.4511C11.9376 7.33975 11.875 7.18872 11.875 7.03125V5.84375ZM4.75 5.84375C4.75 5.68628 4.81256 5.53525 4.92391 5.4239C5.03526 5.31256 5.18628 5.25 5.34375 5.25H8.90625C9.06372 5.25 9.21475 5.31256 9.32609 5.4239C9.43744 5.53525 9.5 5.68628 9.5 5.84375V7.03125C9.5 7.18872 9.43744 7.33975 9.32609 7.4511C9.21475 7.56244 9.06372 7.625 8.90625 7.625H5.34375C5.18628 7.625 5.03526 7.56244 4.92391 7.4511C4.81256 7.33975 4.75 7.18872 4.75 7.03125V5.84375ZM4.75 15.3438C4.75 15.1863 4.81256 15.0353 4.92391 14.9239C5.03526 14.8126 5.18628 14.75 5.34375 14.75H6.53125C6.68872 14.75 6.83974 14.8126 6.95109 14.9239C7.06244 15.0353 7.125 15.1863 7.125 15.3438V16.5312C7.125 16.6887 7.06244 16.8397 6.95109 16.9511C6.83974 17.0624 6.68872 17.125 6.53125 17.125H5.34375C5.18628 17.125 5.03526 17.0624 4.92391 16.9511C4.81256 16.8397 4.75 16.6887 4.75 16.5312V15.3438ZM9.5 15.3438C9.5 15.1863 9.56256 15.0353 9.6739 14.9239C9.78525 14.8126 9.93628 14.75 10.0938 14.75H23.1562C23.3137 14.75 23.4647 14.8126 23.5761 14.9239C23.6874 15.0353 23.75 15.1863 23.75 15.3438V16.5312C23.75 16.6887 23.6874 16.8397 23.5761 16.9511C23.4647 17.0624 23.3137 17.125 23.1562 17.125H10.0938C9.93628 17.125 9.78525 17.0624 9.6739 16.9511C9.56256 16.8397 9.5 16.6887 9.5 16.5312V15.3438Z" fill="#6E7494"/>
</svg>
