<svg width="22" height="19" viewBox="0 0 22 19" fill="none" xmlns="http://www.w3.org/2000/svg"><path d="M1.17743 3.07745C1.03211 2.81741 0.973749 2.5177 1.0109 2.22213C1.04806 1.92656 1.17878 1.65061 1.38395 1.43463C1.58911 1.21865 1.85798 1.07394 2.15125 1.02167C2.44453 0.969392 2.74684 1.01229 3.014 1.14408L20.7131 9.2485C20.828 9.30694 20.9244 9.39595 20.9918 9.50577C21.0591 9.61558 21.0948 9.74195 21.0948 9.87075C21.0948 9.99963 21.0591 10.1259 20.9918 10.2357C20.9244 10.3456 20.828 10.4346 20.7131 10.4931L3.014 17.8559C2.74684 17.9877 2.44453 18.0306 2.15125 17.9783C1.85798 17.926 1.58911 17.7813 1.38395 17.5654C1.17878 17.3494 1.04806 17.0735 1.0109 16.7779C0.973749 16.4823 1.03211 16.1826 1.17743 15.9225L5.88566 9.87033L1.17743 3.07745Z" stroke="currentColor" stroke-linecap="round" stroke-linejoin="round"/><path d="M21.095 9.87036H5.88116" stroke="currentColor" stroke-linecap="round" stroke-linejoin="round"/></svg>
