<svg width="24" height="23" viewBox="0 0 24 23" fill="none" xmlns="http://www.w3.org/2000/svg">
<path d="M11.2812 8.0625H12.7188V14.25H11.2812V8.0625Z" fill="#6E7494"/>
<path d="M9.84375 1.875H14.1562V3.25H9.84375V1.875Z" fill="#6E7494"/>
<path d="M20.6249 6.68825L19.6043 5.71887L17.9871 7.26575C16.6633 5.80346 14.8014 4.88523 12.7883 4.70186C10.7751 4.51849 8.76549 5.08406 7.17695 6.28107C5.58841 7.47809 4.54308 9.2145 4.25815 11.1295C3.97323 13.0446 4.47062 14.991 5.64697 16.5644C6.82333 18.1378 8.58821 19.2172 10.5749 19.5783C12.5616 19.9394 14.6174 19.5545 16.3151 18.5035C18.0128 17.4525 19.222 15.8162 19.6913 13.9347C20.1606 12.0532 19.854 10.0711 18.8352 8.40012L20.6249 6.68825ZM11.9999 18.3757C10.7205 18.3757 9.46985 18.0129 8.40607 17.333C7.34229 16.6531 6.51317 15.6867 6.02357 14.5561C5.53396 13.4255 5.40586 12.1814 5.65546 10.9811C5.90505 9.78087 6.52114 8.67836 7.42581 7.81303C8.33048 6.94769 9.48311 6.35839 10.7379 6.11964C11.9927 5.88089 13.2934 6.00343 14.4754 6.47175C15.6574 6.94006 16.6677 7.73313 17.3785 8.75066C18.0893 9.76819 18.4687 10.9645 18.4687 12.1882C18.4687 13.8293 17.7871 15.4031 16.574 16.5635C15.3609 17.7239 13.7155 18.3757 11.9999 18.3757Z" fill="#6E7494"/>
</svg>
