<svg width="369" height="370" viewBox="0 0 369 370" fill="none" xmlns="http://www.w3.org/2000/svg">
<g filter="url(#filter0_d_6319_52803)">
<path d="M134.701 81.3496H151.301C153.791 81.3496 155.451 79.6896 155.451 77.1996V64.7496H213.551V77.1996C213.551 79.6896 215.211 81.3496 217.701 81.3496H234.301C236.791 81.3496 238.451 79.6896 238.451 77.1996V64.7496C238.451 51.0546 227.246 39.8496 213.551 39.8496H155.451C141.756 39.8496 130.551 51.0546 130.551 64.7496V77.1996C130.551 79.6896 132.211 81.3496 134.701 81.3496Z" fill="url(#paint0_linear_6319_52803)" shape-rendering="crispEdges"/>
</g>
<g filter="url(#filter1_d_6319_52803)">
<path d="M284.1 106.25H84.9C71.205 106.25 60 117.455 60 131.15V263.95C60 277.645 71.205 288.85 84.9 288.85H284.1C297.795 288.85 309 277.645 309 263.95V131.15C309 117.455 297.795 106.25 284.1 106.25Z" fill="url(#paint1_linear_6319_52803)" shape-rendering="crispEdges"/>
</g>
<path d="M92.2165 211.297C87.9537 190.422 85.8222 179.984 89.9061 171.077C91.0649 168.55 92.7646 165.923 94.5951 163.83C101.046 156.455 110.991 154.223 130.882 149.759C156.432 144.024 187.493 138.211 212.34 137.099V137.099C217.62 136.863 220.26 136.745 223.478 137.304C232.604 138.891 242.662 147.007 246.141 155.592C247.368 158.619 247.764 160.953 248.557 165.622C248.634 166.078 248.708 166.526 248.778 166.966V166.966C249.435 171.123 249.764 173.202 249.621 176.262C249.147 186.416 241.236 198.049 231.966 202.221C229.172 203.478 226.656 204.039 221.623 205.161C220.968 205.307 220.328 205.448 219.704 205.583C180.541 214.049 122.168 217.487 101.414 218.487C98.1782 218.643 96.5602 218.721 95.2792 217.973C94.9023 217.753 94.5472 217.477 94.2407 217.166C93.1992 216.109 92.8717 214.505 92.2165 211.297V211.297Z" fill="black"/>
<path d="M104.284 184.164C103.478 184.291 102.791 184.326 102.222 184.269C101.648 184.183 101.178 183.918 100.813 183.475C100.443 183.003 100.092 182.277 99.7604 181.297L94.7969 165.319L97.9037 164.827L102.424 179.681C102.691 180.435 102.96 180.923 103.231 181.146C103.502 181.368 103.954 181.429 104.587 181.329L105.838 181.131L106.836 163.412L110.072 162.9L116.712 179.408L118.05 179.197C118.539 179.119 118.897 178.959 119.124 178.717C119.351 178.475 119.469 178.102 119.478 177.599L118.918 161.499L121.378 161.109L121.751 177.991C121.796 179.016 121.684 179.801 121.416 180.344C121.144 180.859 120.717 181.236 120.136 181.476C119.55 181.687 118.782 181.867 117.833 182.018L115.071 182.455L109.482 168.39L108.891 166.891L108.842 168.535L108.038 183.569L104.284 184.164Z" fill="white"/>
<path d="M126.149 180.701L129.202 162.833C129.392 161.801 129.748 160.978 130.27 160.364C130.788 159.722 131.78 159.284 133.247 159.052C134.571 158.843 135.587 158.932 136.298 159.321C137.008 159.71 137.635 160.407 138.177 161.412L146.732 177.441L143.15 178.008L140.427 172.822L129.639 174.53L128.738 180.291L126.149 180.701ZM129.961 172.931L139.583 171.407L135.362 163.185C135.149 162.776 134.903 162.432 134.623 162.152C134.338 161.843 133.851 161.743 133.16 161.853C132.383 161.976 131.893 162.23 131.689 162.616C131.513 162.998 131.4 163.399 131.349 163.82L129.961 172.931Z" fill="white"/>
<path d="M153.302 176.4L152.024 168.331L143.036 158.784L142.089 157.829L146.49 157.132L154.028 165.625L158.659 155.204L161.679 154.726L160.921 156.084L155.303 167.811L156.342 174.37C156.43 174.74 156.449 175.046 156.399 175.29C156.345 175.505 156.226 175.686 156.043 175.833C155.855 175.951 155.546 176.045 155.114 176.113L153.302 176.4Z" fill="white"/>
<path d="M186.113 162.489C186.309 163.726 186.434 164.886 186.487 165.969C186.536 167.022 186.32 167.986 185.839 168.858C185.387 169.726 184.533 170.48 183.278 171.121C182.052 171.758 180.245 172.265 177.857 172.643C175.959 172.944 174.385 173.061 173.135 172.993C171.91 172.892 170.926 172.635 170.182 172.222C169.468 171.805 168.912 171.274 168.515 170.629C168.118 169.984 167.81 169.251 167.591 168.431C167.397 167.577 167.227 166.69 167.081 165.769L165.516 155.887C165.443 155.427 165.401 155.065 165.389 154.802C165.376 154.538 165.464 154.348 165.652 154.229C165.839 154.111 166.135 154.02 166.537 153.956L168.566 153.635L170.636 166.71C170.841 168.004 171.202 168.979 171.719 169.635C172.26 170.257 172.999 170.641 173.936 170.787C174.902 170.929 176.104 170.886 177.543 170.659C179.787 170.303 181.338 169.674 182.198 168.771C183.082 167.835 183.385 166.489 183.107 164.735L181.036 151.66L182.978 151.353C183.409 151.284 183.733 151.277 183.948 151.332C184.163 151.386 184.305 151.54 184.375 151.795C184.445 152.049 184.516 152.406 184.589 152.867L186.113 162.489Z" fill="white"/>
<path d="M121.026 197.846C120.703 195.803 120.637 194.088 120.831 192.701C121.053 191.31 121.565 190.167 122.367 189.273C123.169 188.38 124.266 187.675 125.659 187.159C127.08 186.639 128.827 186.215 130.898 185.887C131.963 185.719 132.991 185.6 133.982 185.531C134.998 185.43 136.038 185.383 137.101 185.391C137.986 185.399 138.565 185.513 138.836 185.736C139.131 185.925 139.313 186.235 139.382 186.667L139.552 187.746C138.965 187.573 138.168 187.478 137.163 187.461C136.153 187.414 135.123 187.43 134.074 187.507C133.025 187.585 132.097 187.688 131.292 187.815C129.278 188.134 127.706 188.634 126.575 189.314C125.469 189.961 124.75 190.916 124.419 192.177C124.088 193.439 124.093 195.148 124.435 197.306C124.777 199.463 125.288 201.107 125.968 202.238C126.644 203.34 127.625 204.04 128.911 204.338C130.225 204.631 131.961 204.606 134.118 204.265C134.895 204.142 135.766 203.96 136.73 203.718C137.695 203.477 138.623 203.197 139.517 202.879C140.405 202.532 141.164 202.205 141.794 201.899L141.951 202.891C142.011 203.265 141.934 203.617 141.72 203.945C141.502 204.245 140.957 204.523 140.083 204.78C139.108 205.141 138.122 205.43 137.124 205.647C136.131 205.892 135.102 206.099 134.038 206.268C131.909 206.605 130.088 206.746 128.575 206.691C127.058 206.607 125.797 206.276 124.791 205.698C123.81 205.087 123.013 204.151 122.4 202.892C121.817 201.628 121.359 199.946 121.026 197.846Z" fill="white"/>
<path d="M144.314 204.331L147.367 186.464C147.557 185.431 147.913 184.608 148.435 183.994C148.953 183.352 149.945 182.915 151.412 182.682C152.736 182.473 153.752 182.562 154.463 182.951C155.173 183.34 155.799 184.037 156.342 185.042L164.896 201.071L161.315 201.638L158.591 196.452L147.804 198.16L146.903 203.921L144.314 204.331ZM148.126 196.561L157.748 195.037L153.527 186.815C153.314 186.406 153.068 186.062 152.788 185.782C152.503 185.473 152.015 185.374 151.325 185.483C150.548 185.606 150.058 185.861 149.854 186.247C149.678 186.628 149.565 187.03 149.514 187.451L148.126 196.561Z" fill="white"/>
<path d="M169.327 200.369L166.449 182.203C166.326 181.426 166.323 180.94 166.44 180.745C166.585 180.545 166.974 180.395 167.607 180.294L169.98 179.918L179.608 194.627L179.742 194.915L179.808 194.772L179.847 194.457L184.479 177.622L186.982 177.226C187.586 177.13 187.985 177.14 188.181 177.257C188.4 177.34 188.558 177.684 188.654 178.288L191.381 195.505C191.444 195.908 191.447 196.202 191.388 196.388C191.358 196.57 191.249 196.72 191.061 196.838C190.898 196.923 190.629 196.995 190.255 197.054L188.227 197.376L185.657 181.151L185.58 181.783L181.021 198.517L178.777 198.872L169.446 184.647L169.221 184.064L171.743 199.986L169.327 200.369Z" fill="white"/>
<path d="M199.057 195.223C197.977 188.408 196.903 181.626 195.834 174.878C194.755 168.063 193.675 161.248 192.596 154.433C192.271 152.382 192.464 151.029 193.174 150.374C193.94 149.642 195.078 149.123 196.59 148.815C198.763 148.403 202.159 149.008 205.07 148.547C207.971 148.019 209.995 146.523 212.85 146.138C215.762 145.677 218.867 143.935 220.807 143.764C223.419 143.554 224.95 145.239 226.761 145.97C228.573 146.7 229.984 147.901 230.995 149.572C232.061 151.167 228.722 154.29 229.131 156.87C229.613 159.914 233.53 161.514 232.73 163.744C231.997 165.962 230.716 167.725 228.888 169.032C227.06 170.339 224.757 171.212 221.978 171.652C218.868 172.145 215.96 171.984 212.85 172.476C209.741 172.969 206.396 174.12 203.221 174.623C203.137 174.094 203.069 173.664 203.016 173.333C203.03 172.992 203.12 172.706 203.287 172.476C203.455 172.246 203.803 172.09 204.332 172.006C205.192 171.869 206.582 171.649 208.5 171.345C210.485 171.031 212.65 169.753 214.9 169.396C217.149 169.04 219.087 169.669 220.807 169.396C222.66 169.103 224.327 168.5 225.811 167.586C227.294 166.673 228.401 165.311 229.131 163.5C229.861 161.688 227.254 159.98 226.761 156.87C226.311 154.025 229.744 152.448 228.225 150.993C226.772 149.527 223.628 145.963 220.807 146.138C218.515 146.23 215.263 148.096 212.418 148.547C209.562 148.931 207.64 150.518 205.07 150.993C202.566 151.457 199.768 150.686 198.257 150.993C197.992 151.035 197.517 151.246 196.831 151.626C196.145 152.006 195.902 152.824 196.101 154.081C197.159 160.764 198.228 167.513 199.308 174.327C200.377 181.076 201.451 187.858 202.53 194.673L199.057 195.223Z" fill="white"/>
<path d="M196.848 221.553C196.737 220.852 196.714 220.263 196.781 219.787C196.857 219.309 197.033 218.917 197.308 218.61C197.583 218.303 197.96 218.061 198.438 217.884C198.926 217.706 199.526 217.56 200.237 217.448C200.603 217.39 200.956 217.349 201.296 217.325C201.645 217.29 202.002 217.274 202.367 217.277C202.671 217.28 202.87 217.319 202.963 217.396C203.064 217.461 203.126 217.567 203.15 217.715L203.209 218.086C203.007 218.026 202.733 217.994 202.388 217.988C202.041 217.972 201.688 217.977 201.328 218.004C200.967 218.031 200.649 218.066 200.372 218.11C199.681 218.219 199.141 218.391 198.753 218.624C198.373 218.846 198.126 219.174 198.013 219.607C197.899 220.04 197.901 220.627 198.018 221.368C198.136 222.109 198.311 222.673 198.545 223.061C198.777 223.44 199.113 223.68 199.555 223.782C200.006 223.883 200.602 223.875 201.343 223.757C201.61 223.715 201.908 223.653 202.24 223.57C202.571 223.487 202.89 223.391 203.196 223.282C203.501 223.162 203.762 223.05 203.978 222.945L204.032 223.286C204.053 223.414 204.026 223.535 203.953 223.648C203.878 223.751 203.691 223.846 203.391 223.934C203.056 224.058 202.717 224.157 202.375 224.232C202.034 224.316 201.681 224.387 201.315 224.445C200.584 224.561 199.959 224.609 199.44 224.59C198.919 224.561 198.486 224.448 198.14 224.249C197.803 224.039 197.53 223.718 197.32 223.286C197.119 222.852 196.962 222.274 196.848 221.553ZM208.993 223.229C208.401 223.323 207.87 223.361 207.402 223.344C206.933 223.327 206.517 223.226 206.154 223.041C205.799 222.844 205.5 222.527 205.259 222.089C205.017 221.652 204.837 221.052 204.716 220.292C204.594 219.522 204.585 218.89 204.689 218.398C204.802 217.894 205.007 217.497 205.306 217.207C205.604 216.917 205.979 216.695 206.431 216.543C206.892 216.388 207.414 216.265 207.997 216.173C208.58 216.081 209.105 216.043 209.574 216.06C210.041 216.067 210.452 216.169 210.807 216.366C211.17 216.551 211.473 216.863 211.714 217.3C211.956 217.738 212.137 218.337 212.257 219.098C212.381 219.878 212.385 220.515 212.271 221.009C212.167 221.501 211.966 221.898 211.67 222.198C211.381 222.486 211.006 222.708 210.545 222.862C210.093 223.014 209.576 223.137 208.993 223.229ZM208.937 222.585C209.352 222.519 209.716 222.426 210.031 222.305C210.345 222.175 210.595 221.993 210.781 221.761C210.976 221.528 211.099 221.215 211.148 220.822C211.206 220.418 211.185 219.905 211.087 219.283C210.99 218.671 210.852 218.186 210.674 217.83C210.505 217.462 210.291 217.197 210.032 217.035C209.782 216.862 209.488 216.767 209.152 216.749C208.815 216.732 208.439 216.756 208.024 216.822C207.599 216.889 207.229 216.983 206.914 217.104C206.609 217.223 206.365 217.404 206.18 217.645C205.994 217.877 205.872 218.195 205.815 218.599C205.766 218.992 205.789 219.494 205.886 220.107C205.985 220.729 206.119 221.224 206.289 221.592C206.467 221.948 206.68 222.208 206.929 222.371C207.177 222.535 207.466 222.631 207.794 222.66C208.131 222.677 208.512 222.652 208.937 222.585ZM214.69 222.22L213.702 215.983C213.66 215.716 213.659 215.55 213.699 215.483C213.749 215.414 213.882 215.362 214.1 215.328L214.914 215.199L218.22 220.249L218.266 220.348L218.289 220.299L218.302 220.19L219.892 214.41L220.752 214.274C220.959 214.242 221.096 214.245 221.163 214.285C221.239 214.314 221.293 214.432 221.326 214.639L222.262 220.55C222.284 220.689 222.285 220.79 222.264 220.854C222.254 220.916 222.217 220.968 222.152 221.008C222.096 221.037 222.004 221.062 221.875 221.082L221.179 221.193L220.297 215.622L220.27 215.839L218.705 221.585L217.935 221.707L214.731 216.823L214.654 216.622L215.52 222.089L214.69 222.22ZM224.789 220.621L223.801 214.384C223.759 214.117 223.758 213.95 223.798 213.883C223.847 213.814 223.981 213.763 224.198 213.728L225.013 213.599L228.319 218.649L228.365 218.748L228.387 218.699L228.401 218.591L229.991 212.811L230.85 212.675C231.058 212.642 231.195 212.646 231.262 212.686C231.337 212.714 231.392 212.832 231.424 213.04L232.361 218.951C232.383 219.089 232.383 219.19 232.363 219.254C232.353 219.317 232.315 219.368 232.251 219.409C232.195 219.438 232.103 219.463 231.974 219.483L231.278 219.593L230.396 214.023L230.369 214.239L228.804 219.985L228.033 220.107L224.83 215.223L224.753 215.023L225.618 220.49L224.789 220.621ZM240.825 215.089C240.893 215.514 240.936 215.912 240.954 216.284C240.971 216.646 240.897 216.976 240.731 217.276C240.576 217.574 240.283 217.833 239.852 218.053C239.431 218.271 238.811 218.446 237.991 218.575C237.339 218.679 236.799 218.719 236.37 218.696C235.949 218.661 235.611 218.573 235.356 218.431C235.11 218.288 234.92 218.105 234.783 217.884C234.647 217.662 234.541 217.411 234.466 217.129C234.4 216.836 234.341 216.531 234.291 216.215L233.754 212.822C233.729 212.664 233.714 212.54 233.71 212.45C233.706 212.359 233.736 212.294 233.8 212.253C233.865 212.213 233.966 212.181 234.104 212.159L234.801 212.049L235.512 216.538C235.582 216.983 235.706 217.317 235.883 217.542C236.069 217.756 236.323 217.888 236.645 217.938C236.976 217.987 237.389 217.972 237.883 217.894C238.653 217.772 239.186 217.556 239.481 217.246C239.785 216.925 239.889 216.463 239.793 215.86L239.082 211.371L239.749 211.265C239.897 211.242 240.008 211.24 240.082 211.258C240.156 211.277 240.205 211.33 240.229 211.417C240.253 211.505 240.277 211.627 240.302 211.785L240.825 215.089ZM243.597 217.642L242.614 211.434C242.572 211.168 242.565 210.997 242.594 210.921C242.632 210.844 242.76 210.789 242.977 210.754L243.97 210.597L249.279 215.542L249.328 215.565L248.429 209.891L249.303 209.752C249.295 209.764 249.291 209.805 249.292 209.875C249.292 209.936 249.298 210.006 249.31 210.085C249.321 210.154 249.332 210.223 249.343 210.293L250.249 216.011C250.29 216.268 250.28 216.432 250.22 216.502C250.171 216.57 250.042 216.621 249.835 216.654L248.916 216.8L243.556 211.817L243.531 211.76L244.442 217.508L243.597 217.642ZM252.842 216.178C252.675 215.121 252.508 214.064 252.34 213.007C252.173 211.95 252.005 210.894 251.838 209.837C251.821 209.728 251.813 209.643 251.813 209.583C251.822 209.51 251.848 209.45 251.891 209.403C251.944 209.354 252.035 209.32 252.163 209.299L252.904 209.182L253.983 215.997L252.842 216.178ZM254.462 208.935L261.203 207.868L261.308 208.534L258.508 208.978L259.405 214.637C259.434 214.825 259.43 214.957 259.392 215.034C259.363 215.109 259.26 215.161 259.082 215.189L258.356 215.304L257.382 209.156L254.567 209.602L254.462 208.935ZM265.557 214.164L265.118 211.393L262.032 208.116L261.707 207.788L263.218 207.548L265.806 210.464L267.396 206.887L268.433 206.722L268.173 207.189L266.244 211.215L266.601 213.467C266.631 213.594 266.637 213.699 266.62 213.783C266.602 213.857 266.561 213.919 266.498 213.969C266.433 214.01 266.327 214.042 266.179 214.065L265.557 214.164ZM205.38 235.92C205.232 235.944 205.091 235.946 204.956 235.927C204.821 235.908 204.682 235.859 204.538 235.78C204.469 235.731 204.349 235.638 204.175 235.504C204.012 235.368 203.821 235.216 203.602 235.048C203.391 234.869 203.176 234.69 202.955 234.512C202.733 234.325 202.535 234.159 202.36 234.014C202.185 233.87 202.057 233.764 201.975 233.696C201.848 233.594 201.741 233.525 201.654 233.488C201.567 233.452 201.437 233.427 201.262 233.414L200.473 233.508L200.954 236.546L199.828 236.724L198.814 230.324C198.798 230.225 198.791 230.145 198.791 230.084C198.802 230.022 198.829 229.972 198.874 229.935C198.928 229.896 199.015 229.867 199.133 229.848C199.262 229.828 199.385 229.808 199.504 229.789C199.632 229.769 199.756 229.749 199.874 229.731C199.896 229.869 199.928 230.071 199.97 230.338C200.011 230.595 200.055 230.871 200.102 231.168C200.147 231.454 200.191 231.731 200.233 231.997C200.274 232.254 200.305 232.452 200.327 232.59L201.105 232.421C201.242 232.389 201.341 232.343 201.402 232.283C201.464 232.223 201.531 232.136 201.604 232.023C201.784 231.752 201.972 231.469 202.168 231.174C202.375 230.879 202.585 230.577 202.8 230.27C203.014 229.962 203.215 229.667 203.403 229.384C203.508 229.277 203.621 229.193 203.743 229.133C203.866 229.073 204.011 229.03 204.178 229.003C204.317 228.981 204.432 228.973 204.524 228.979C204.616 228.985 204.709 228.995 204.802 229.011C204.784 229.024 204.726 229.104 204.628 229.251C204.538 229.387 204.431 229.545 204.308 229.727C204.184 229.899 204.076 230.052 203.986 230.188C203.767 230.466 203.535 230.756 203.289 231.058C203.043 231.36 202.807 231.661 202.581 231.96C202.364 232.247 202.158 232.518 201.966 232.771L201.972 232.527C202.128 232.614 202.35 232.766 202.637 232.983C202.933 233.19 203.271 233.44 203.652 233.734C204.031 234.018 204.428 234.32 204.843 234.639C205.258 234.958 205.659 235.254 206.047 235.526C206.032 235.559 205.994 235.606 205.932 235.666C205.869 235.716 205.796 235.764 205.712 235.807C205.629 235.861 205.519 235.899 205.38 235.92ZM207.583 235.496L206.599 229.288C206.557 229.021 206.55 228.85 206.579 228.775C206.617 228.698 206.745 228.642 206.962 228.608L207.955 228.451L213.264 233.396L213.313 233.419L212.414 227.744L213.289 227.606C213.28 227.617 213.277 227.658 213.278 227.729C213.277 227.79 213.283 227.86 213.296 227.939C213.307 228.008 213.318 228.077 213.329 228.146L214.234 233.865C214.275 234.122 214.266 234.285 214.206 234.356C214.156 234.424 214.027 234.475 213.82 234.508L212.901 234.653L207.541 229.671L207.517 229.614L208.427 235.362L207.583 235.496ZM220 233.635C219.407 233.729 218.877 233.768 218.408 233.751C217.94 233.734 217.524 233.633 217.16 233.447C216.805 233.25 216.507 232.933 216.265 232.495C216.024 232.058 215.843 231.459 215.723 230.698C215.601 229.928 215.592 229.296 215.696 228.804C215.809 228.3 216.014 227.903 216.312 227.613C216.611 227.323 216.986 227.101 217.437 226.949C217.899 226.795 218.421 226.672 219.004 226.579C219.586 226.487 220.112 226.449 220.58 226.466C221.047 226.473 221.458 226.575 221.813 226.772C222.177 226.958 222.479 227.269 222.721 227.707C222.962 228.144 223.143 228.743 223.264 229.504C223.387 230.284 223.392 230.921 223.278 231.415C223.174 231.908 222.973 232.304 222.676 232.604C222.388 232.893 222.013 233.114 221.551 233.268C221.1 233.421 220.582 233.543 220 233.635ZM219.943 232.991C220.358 232.926 220.723 232.832 221.038 232.712C221.351 232.581 221.601 232.4 221.787 232.168C221.983 231.934 222.106 231.621 222.155 231.229C222.212 230.825 222.192 230.312 222.093 229.689C221.996 229.077 221.859 228.592 221.681 228.236C221.511 227.868 221.297 227.603 221.039 227.442C220.788 227.269 220.495 227.173 220.158 227.156C219.821 227.138 219.445 227.162 219.031 227.228C218.606 227.295 218.236 227.389 217.921 227.51C217.616 227.629 217.371 227.81 217.187 228.052C217.001 228.284 216.879 228.602 216.821 229.006C216.772 229.398 216.796 229.901 216.893 230.513C216.992 231.135 217.126 231.63 217.295 231.998C217.473 232.355 217.687 232.615 217.935 232.778C218.184 232.941 218.472 233.037 218.801 233.066C219.138 233.083 219.519 233.059 219.943 232.991ZM227.267 232.378C226.99 232.422 226.754 232.434 226.559 232.414C226.362 232.385 226.201 232.294 226.075 232.142C225.948 231.979 225.828 231.73 225.714 231.394L224.01 225.908L225.076 225.739L226.628 230.839C226.72 231.098 226.812 231.265 226.905 231.342C226.999 231.418 227.154 231.439 227.371 231.405L227.801 231.337L228.143 225.253L229.254 225.077L231.534 230.745L231.993 230.673C232.161 230.646 232.284 230.591 232.362 230.508C232.44 230.425 232.481 230.297 232.484 230.124L232.292 224.596L233.136 224.462L233.264 230.259C233.28 230.611 233.241 230.88 233.149 231.067C233.056 231.243 232.909 231.373 232.71 231.455C232.509 231.528 232.245 231.59 231.919 231.641L230.971 231.791L229.052 226.962L228.849 226.448L228.832 227.012L228.556 232.174L227.267 232.378ZM236.233 223.972L237.209 230.135L241.757 229.415L241.86 230.067L236.186 230.965L235.184 224.639C235.167 224.531 235.158 224.441 235.157 224.37C235.156 224.3 235.181 224.24 235.234 224.191C235.287 224.142 235.378 224.107 235.507 224.087L236.233 223.972ZM243.246 229.847L242.242 223.506C242.214 223.328 242.219 223.201 242.258 223.124C242.296 223.047 242.399 222.995 242.567 222.969L248.449 222.037L248.552 222.689L243.411 223.503L243.77 225.77L248.481 225.024L248.585 225.676L243.873 226.422L244.284 229.015L249.425 228.2L249.528 228.852L243.246 229.847ZM257.797 224.11C257.925 224.92 257.937 225.571 257.833 226.064C257.727 226.546 257.523 226.918 257.22 227.178C256.927 227.437 256.543 227.635 256.068 227.771C255.602 227.895 255.068 228.005 254.465 228.101C254.179 228.146 253.877 228.189 253.559 228.229C253.253 228.277 252.947 228.326 252.641 228.374C252.344 228.421 252.072 228.459 251.823 228.489C251.586 228.526 251.394 228.557 251.246 228.58L250.316 222.713C250.266 222.397 250.269 222.159 250.325 221.998C250.39 221.836 250.599 221.717 250.951 221.641C251.108 221.606 251.314 221.568 251.571 221.527C251.828 221.487 252.1 221.444 252.386 221.398C252.681 221.342 252.966 221.291 253.243 221.247C253.52 221.204 253.752 221.172 253.942 221.152C254.488 221.086 254.969 221.055 255.385 221.06C255.811 221.063 256.18 221.157 256.493 221.34C256.815 221.522 257.082 221.834 257.294 222.276C257.504 222.709 257.672 223.32 257.797 224.11ZM252.285 227.762C252.355 227.751 252.479 227.737 252.658 227.719C252.846 227.689 253.048 227.657 253.266 227.622C253.483 227.588 253.691 227.56 253.89 227.539C254.098 227.506 254.256 227.481 254.364 227.464C254.868 227.384 255.287 227.282 255.622 227.158C255.957 227.034 256.213 226.862 256.391 226.641C256.577 226.41 256.686 226.109 256.718 225.739C256.759 225.358 256.734 224.876 256.641 224.293C256.516 223.503 256.338 222.919 256.106 222.541C255.882 222.151 255.566 221.912 255.157 221.825C254.758 221.736 254.218 221.746 253.537 221.854C253.398 221.876 253.201 221.907 252.944 221.948C252.697 221.987 252.451 222.031 252.205 222.08C251.959 222.119 251.768 222.159 251.632 222.201C251.57 222.252 251.524 222.315 251.495 222.39C251.465 222.455 251.465 222.582 251.495 222.77L252.285 227.762ZM263.315 226.775C262.634 226.883 262.053 226.919 261.571 226.884C261.09 226.849 260.685 226.721 260.356 226.499C260.036 226.267 259.776 225.938 259.577 225.514C259.377 225.08 259.224 224.527 259.117 223.856C259 223.115 258.989 222.504 259.085 222.023C259.179 221.532 259.365 221.138 259.642 220.841C259.929 220.543 260.297 220.312 260.748 220.15C261.196 219.978 261.722 219.844 262.324 219.748C262.818 219.67 263.275 219.613 263.694 219.577C264.122 219.529 264.494 219.516 264.812 219.537C265.014 219.535 265.164 219.557 265.262 219.602C265.371 219.646 265.441 219.705 265.473 219.781C265.514 219.846 265.54 219.917 265.553 219.996L265.6 220.293C265.521 220.244 265.39 220.215 265.206 220.203C265.022 220.192 264.809 220.19 264.567 220.198C264.335 220.204 264.094 220.217 263.844 220.237C263.593 220.246 263.353 220.269 263.126 220.305C262.907 220.329 262.724 220.353 262.576 220.377C261.884 220.486 261.354 220.656 260.986 220.887C260.617 221.117 260.377 221.454 260.265 221.897C260.161 222.329 260.169 222.92 260.288 223.67C260.402 224.391 260.566 224.947 260.78 225.339C261.003 225.729 261.312 225.983 261.706 226.103C262.108 226.212 262.625 226.216 263.257 226.116C263.83 226.025 264.275 225.899 264.594 225.737C264.912 225.575 265.127 225.329 265.236 224.997C265.346 224.666 265.362 224.223 265.284 223.669C265.273 223.539 265.256 223.43 265.232 223.343C265.217 223.244 265.205 223.17 265.197 223.12L262.397 223.564C262.369 223.386 262.357 223.251 262.363 223.159C262.379 223.066 262.423 222.993 262.496 222.941C262.578 222.887 262.708 222.846 262.886 222.818L266.205 222.293L266.39 223.463C266.475 223.996 266.481 224.451 266.409 224.827C266.345 225.191 266.192 225.504 265.95 225.765C265.716 226.015 265.379 226.22 264.939 226.381C264.508 226.54 263.967 226.672 263.315 226.775ZM268.595 225.832L267.59 219.491C267.562 219.314 267.567 219.186 267.606 219.109C267.644 219.032 267.747 218.981 267.915 218.954L273.797 218.022L273.9 218.674L268.759 219.489L269.118 221.755L273.829 221.009L273.933 221.661L269.221 222.407L269.632 225L274.773 224.186L274.876 224.837L268.595 225.832ZM200.727 248.731L201.775 242.597C201.841 242.242 201.963 241.959 202.142 241.749C202.32 241.528 202.661 241.378 203.164 241.298C203.619 241.226 203.968 241.257 204.212 241.391C204.456 241.524 204.671 241.763 204.857 242.109L207.794 247.612L206.564 247.807L205.629 246.026L201.925 246.613L201.616 248.59L200.727 248.731ZM202.036 246.064L205.34 245.54L203.89 242.717C203.817 242.577 203.733 242.459 203.637 242.363C203.539 242.257 203.371 242.222 203.134 242.26C202.868 242.302 202.699 242.39 202.629 242.522C202.569 242.653 202.53 242.791 202.512 242.935L202.036 246.064ZM215.792 242.913C215.921 243.723 215.933 244.374 215.828 244.866C215.723 245.349 215.518 245.72 215.215 245.981C214.922 246.24 214.538 246.437 214.064 246.573C213.598 246.698 213.063 246.808 212.461 246.903C212.174 246.948 211.872 246.991 211.555 247.031C211.248 247.08 210.942 247.128 210.636 247.177C210.34 247.224 210.067 247.262 209.819 247.291C209.582 247.329 209.389 247.359 209.241 247.383L208.312 241.516C208.262 241.2 208.264 240.961 208.32 240.801C208.385 240.638 208.594 240.519 208.947 240.443C209.103 240.408 209.31 240.371 209.567 240.33C209.824 240.289 210.095 240.246 210.382 240.201C210.676 240.144 210.962 240.094 211.239 240.05C211.515 240.006 211.748 239.974 211.937 239.954C212.484 239.888 212.965 239.857 213.381 239.862C213.806 239.866 214.176 239.959 214.488 240.143C214.81 240.324 215.078 240.637 215.289 241.079C215.5 241.511 215.667 242.123 215.792 242.913ZM210.281 246.565C210.35 246.554 210.474 246.539 210.654 246.521C210.841 246.491 211.044 246.459 211.261 246.425C211.478 246.39 211.687 246.363 211.886 246.341C212.093 246.308 212.251 246.283 212.36 246.266C212.863 246.186 213.283 246.084 213.617 245.96C213.952 245.837 214.208 245.664 214.386 245.444C214.572 245.212 214.681 244.911 214.714 244.541C214.755 244.16 214.729 243.678 214.637 243.096C214.512 242.306 214.333 241.721 214.101 241.343C213.877 240.953 213.561 240.715 213.152 240.628C212.754 240.539 212.214 240.548 211.532 240.656C211.394 240.678 211.196 240.71 210.939 240.75C210.692 240.789 210.446 240.833 210.201 240.882C209.954 240.922 209.763 240.962 209.628 241.004C209.565 241.054 209.519 241.117 209.491 241.192C209.461 241.258 209.46 241.384 209.49 241.572L210.281 246.565ZM220.482 245.602C220.107 245.662 219.806 245.618 219.581 245.472C219.353 245.315 219.146 245.06 218.958 244.705L216.129 239.306L217.343 239.113L219.816 244.083C219.933 244.307 220.062 244.454 220.205 244.522C220.347 244.591 220.488 244.614 220.626 244.592L220.848 244.557L221.862 238.398L222.736 238.259L221.416 245.454L220.482 245.602ZM225.418 244.82L224.414 238.479C224.386 238.302 224.391 238.174 224.429 238.097C224.468 238.02 224.571 237.969 224.739 237.942L230.62 237.01L230.724 237.662L225.583 238.477L225.942 240.743L230.653 239.997L230.756 240.649L226.045 241.395L226.456 243.988L231.597 243.174L231.7 243.826L225.418 244.82ZM233.491 243.542L232.508 237.334C232.466 237.067 232.459 236.896 232.488 236.821C232.526 236.744 232.654 236.688 232.871 236.654L233.864 236.497L239.173 241.442L239.222 241.465L238.323 235.79L239.197 235.652C239.189 235.663 239.185 235.705 239.186 235.775C239.186 235.836 239.192 235.906 239.204 235.985C239.215 236.054 239.226 236.123 239.237 236.192L240.143 241.911C240.184 242.168 240.174 242.331 240.114 242.402C240.065 242.47 239.936 242.521 239.729 242.554L238.81 242.699L233.45 237.717L233.425 237.66L234.336 243.408L233.491 243.542ZM240.753 235.406L247.494 234.338L247.6 235.005L244.8 235.448L245.696 241.108C245.726 241.295 245.721 241.428 245.683 241.504C245.654 241.58 245.551 241.632 245.374 241.66L244.648 241.775L243.674 235.626L240.859 236.072L240.753 235.406ZM256.068 236.974C256.135 237.399 256.178 237.797 256.196 238.169C256.213 238.531 256.139 238.861 255.973 239.161C255.818 239.459 255.525 239.718 255.094 239.938C254.673 240.157 254.053 240.331 253.233 240.461C252.581 240.564 252.041 240.604 251.612 240.581C251.191 240.546 250.853 240.458 250.598 240.316C250.353 240.173 250.162 239.99 250.025 239.769C249.889 239.547 249.783 239.296 249.708 239.014C249.642 238.721 249.583 238.416 249.533 238.1L248.996 234.708C248.971 234.55 248.956 234.425 248.952 234.335C248.948 234.244 248.978 234.179 249.042 234.138C249.107 234.098 249.208 234.066 249.346 234.045L250.043 233.934L250.754 238.423C250.824 238.868 250.948 239.202 251.125 239.428C251.311 239.641 251.565 239.773 251.887 239.823C252.218 239.872 252.631 239.857 253.125 239.779C253.895 239.657 254.428 239.441 254.723 239.131C255.027 238.81 255.131 238.348 255.035 237.745L254.324 233.256L254.991 233.151C255.139 233.127 255.25 233.125 255.324 233.143C255.398 233.162 255.447 233.215 255.471 233.302C255.495 233.39 255.519 233.512 255.544 233.67L256.068 236.974ZM262.529 236.072C262.529 236.072 262.391 236.094 262.115 236.138C261.838 236.182 261.468 236.24 261.003 236.314C260.539 236.387 260.026 236.474 259.465 236.573L259.906 239.358L258.765 239.539L257.808 233.494C257.763 233.208 257.791 233.001 257.892 232.873C258.003 232.744 258.201 232.652 258.486 232.597C258.633 232.564 258.824 232.528 259.061 232.491C259.308 232.452 259.58 232.409 259.876 232.362C260.171 232.305 260.471 232.252 260.778 232.204C261.094 232.154 261.395 232.106 261.681 232.061C261.978 232.014 262.24 231.977 262.469 231.951C262.698 231.925 262.877 231.907 263.007 231.896C263.528 231.864 263.931 231.978 264.215 232.236C264.497 232.485 264.684 232.896 264.775 233.469C264.847 233.923 264.84 234.294 264.753 234.581C264.677 234.866 264.526 235.093 264.299 235.26C264.274 235.295 264.229 235.327 264.163 235.358C264.105 235.377 264.042 235.392 263.972 235.403L263.977 235.433C264.017 235.427 264.061 235.42 264.111 235.412C264.16 235.404 264.199 235.398 264.229 235.393C264.615 235.403 264.867 235.52 264.983 235.744C265.098 235.959 265.175 236.185 265.212 236.422L265.48 238.111C265.495 238.21 265.518 238.292 265.549 238.358C265.578 238.414 265.599 238.446 265.61 238.455L264.81 238.581C264.672 238.603 264.559 238.596 264.472 238.559C264.385 238.522 264.327 238.41 264.297 238.222L264.049 236.652C264 236.346 263.898 236.149 263.743 236.062C263.596 235.964 263.354 235.942 263.018 235.995L262.529 236.072ZM259.364 235.936C259.502 235.914 259.72 235.884 260.018 235.847C260.315 235.8 260.636 235.75 260.981 235.695C261.337 235.638 261.663 235.587 261.959 235.54C262.255 235.493 262.473 235.459 262.611 235.437C262.937 235.385 263.208 235.241 263.423 235.004C263.647 234.756 263.715 234.356 263.628 233.802C263.568 233.427 263.447 233.143 263.265 232.949C263.091 232.743 262.842 232.646 262.52 232.657C262.308 232.66 262.049 232.686 261.742 232.734C261.435 232.773 261.119 232.823 260.794 232.884C260.468 232.936 260.168 232.989 259.893 233.042C259.616 233.086 259.409 233.119 259.271 233.141C259.241 233.146 259.18 233.176 259.087 233.231C258.993 233.276 258.96 233.383 258.986 233.55L259.364 235.936ZM267.679 238.127L266.675 231.786C266.647 231.608 266.652 231.481 266.69 231.404C266.729 231.327 266.832 231.275 267 231.248L272.882 230.317L272.985 230.969L267.844 231.783L268.203 234.05L272.914 233.304L273.018 233.955L268.306 234.702L268.717 237.294L273.858 236.48L273.961 237.132L267.679 238.127Z" fill="black"/>
<defs>
<filter id="filter0_d_6319_52803" x="70.5508" y="0.849609" width="227.9" height="161.5" filterUnits="userSpaceOnUse" color-interpolation-filters="sRGB">
<feFlood flood-opacity="0" result="BackgroundImageFix"/>
<feColorMatrix in="SourceAlpha" type="matrix" values="0 0 0 0 0 0 0 0 0 0 0 0 0 0 0 0 0 0 127 0" result="hardAlpha"/>
<feOffset dy="21"/>
<feGaussianBlur stdDeviation="30"/>
<feComposite in2="hardAlpha" operator="out"/>
<feColorMatrix type="matrix" values="0 0 0 0 0.191667 0 0 0 0 0.228175 0 0 0 0 0.383333 0 0 0 0.07 0"/>
<feBlend mode="normal" in2="BackgroundImageFix" result="effect1_dropShadow_6319_52803"/>
<feBlend mode="normal" in="SourceGraphic" in2="effect1_dropShadow_6319_52803" result="shape"/>
</filter>
<filter id="filter1_d_6319_52803" x="0" y="67.25" width="369" height="302.6" filterUnits="userSpaceOnUse" color-interpolation-filters="sRGB">
<feFlood flood-opacity="0" result="BackgroundImageFix"/>
<feColorMatrix in="SourceAlpha" type="matrix" values="0 0 0 0 0 0 0 0 0 0 0 0 0 0 0 0 0 0 127 0" result="hardAlpha"/>
<feOffset dy="21"/>
<feGaussianBlur stdDeviation="30"/>
<feComposite in2="hardAlpha" operator="out"/>
<feColorMatrix type="matrix" values="0 0 0 0 0.191667 0 0 0 0 0.228175 0 0 0 0 0.383333 0 0 0 0.15 0"/>
<feBlend mode="normal" in2="BackgroundImageFix" result="effect1_dropShadow_6319_52803"/>
<feBlend mode="normal" in="SourceGraphic" in2="effect1_dropShadow_6319_52803" result="shape"/>
</filter>
<linearGradient id="paint0_linear_6319_52803" x1="184.501" y1="39.8496" x2="184.501" y2="81.3496" gradientUnits="userSpaceOnUse">
<stop stop-color="#EAEEFF"/>
<stop offset="1" stop-color="white" stop-opacity="0.36"/>
</linearGradient>
<linearGradient id="paint1_linear_6319_52803" x1="184.5" y1="106.25" x2="184.5" y2="288.85" gradientUnits="userSpaceOnUse">
<stop stop-color="#EAEEFF"/>
<stop offset="1" stop-color="white" stop-opacity="0.36"/>
</linearGradient>
</defs>
</svg>
