<svg width="57" height="57" viewBox="0 0 57 57" fill="none" xmlns="http://www.w3.org/2000/svg">
<path d="M28.4032 0.381836C12.9276 0.381836 0.381836 12.9279 0.381836 28.4036C0.381836 43.8787 12.9276 56.4263 28.403 56.4263C43.8785 56.4263 56.4256 43.8793 56.4256 28.4036C56.425 12.9279 43.8789 0.381836 28.4032 0.381836ZM40.1965 36.8667C40.1965 37.4167 39.569 37.8808 38.8271 37.8808H14.49C13.7478 37.8808 13.1207 37.4165 13.1207 36.8667V25.0425C13.1207 24.4931 13.7477 24.0285 14.49 24.0285H38.827C39.5688 24.0285 40.1963 24.4931 40.1963 25.0425V36.8667H40.1965ZM45.0416 32.0205C45.0414 32.5704 44.4139 33.035 43.6721 33.035H43.1033V25.0423C43.1033 22.8803 41.1851 21.1211 38.827 21.1211H17.9661V20.1966C17.9661 19.6472 18.593 19.1826 19.3354 19.1826H43.6723C44.4141 19.1826 45.0416 19.6472 45.0416 20.1966V32.0205Z" fill="url(#paint0_linear_2452_19503)"/>
<path d="M26.413 29.9366C25.2792 29.801 24.7399 29.6493 24.7399 29.158C24.7399 28.3949 25.8572 28.3125 26.3379 28.3125C27.0482 28.3125 27.8332 28.6545 28.0876 29.0751L28.1995 29.2606L29.8711 28.4868L29.762 28.2645C29.1864 27.0876 28.1694 26.727 27.3786 26.5798V25.5352H25.424V26.574C23.7375 26.8419 22.7384 27.7965 22.7384 29.158C22.7384 31.4052 24.8393 31.6398 26.2284 31.7948C27.4558 31.9402 28.0521 32.2439 28.0521 32.7237C28.0521 33.6699 26.7046 33.7431 26.2914 33.7431C25.3616 33.7431 24.4672 33.2843 24.2109 32.6757L24.1163 32.4519L22.3037 33.2202L22.3992 33.4436C22.8996 34.6163 23.9695 35.3566 25.424 35.5451V36.6701H27.3786V35.4889C28.779 35.3106 30.1225 34.4104 30.1225 32.7233C30.1231 30.393 27.8907 30.1184 26.413 29.9366Z" fill="url(#paint1_linear_2452_19503)"/>
<defs>
<linearGradient id="paint0_linear_2452_19503" x1="28.4037" y1="0.381836" x2="28.4037" y2="56.4263" gradientUnits="userSpaceOnUse">
<stop stop-color="#82FFB4"/>
<stop offset="1" stop-color="#00C24E"/>
</linearGradient>
<linearGradient id="paint1_linear_2452_19503" x1="26.2131" y1="25.5352" x2="26.2131" y2="36.6701" gradientUnits="userSpaceOnUse">
<stop stop-color="#80FFB3"/>
<stop offset="1" stop-color="#13CB5D"/>
</linearGradient>
</defs>
</svg>
