<svg xmlns="http://www.w3.org/2000/svg" width="151" height="147" viewBox="0 0 151 147" fill="none">
<g filter="url(#filter0_i_0_1)">
<path d="M50.9567 18.7628C58.7147 -5.1139 92.4939 -5.11391 100.252 18.7628V18.7628C103.721 29.4408 113.672 36.6703 124.9 36.6703V36.6703C150.005 36.6703 160.443 68.7963 140.133 83.5529V83.5529C131.049 90.1522 127.249 101.85 130.718 112.528V112.528C138.476 136.405 111.148 156.259 90.8374 141.503V141.503C81.7541 134.904 69.4545 134.904 60.3713 141.503V141.503C40.0605 156.259 12.7326 136.405 20.4906 112.528V112.528C23.9601 101.85 20.1593 90.1522 11.0761 83.5529V83.5529C-9.23468 68.7963 1.20366 36.6703 26.3091 36.6703V36.6703C37.5366 36.6703 47.4872 29.4408 50.9567 18.7628V18.7628Z" fill="url(#paint0_radial_0_1)"/>
</g>
<defs>
<filter id="filter0_i_0_1" x="-5.65625" y="-15.1445" width="156.521" height="161.715" filterUnits="userSpaceOnUse" color-interpolation-filters="sRGB">
<feFlood flood-opacity="0" result="BackgroundImageFix"/>
<feBlend mode="normal" in="SourceGraphic" in2="BackgroundImageFix" result="shape"/>
<feColorMatrix in="SourceAlpha" type="matrix" values="0 0 0 0 0 0 0 0 0 0 0 0 0 0 0 0 0 0 127 0" result="hardAlpha"/>
<feOffset dx="-6" dy="-16"/>
<feGaussianBlur stdDeviation="15"/>
<feComposite in2="hardAlpha" operator="arithmetic" k2="-1" k3="1"/>
<feColorMatrix type="matrix" values="0 0 0 0 0.520833 0 0 0 0 0.144031 0 0 0 0 0.112847 0 0 0 0.34 0"/>
<feBlend mode="normal" in2="shape" result="effect1_innerShadow_0_1"/>
</filter>
<radialGradient id="paint0_radial_0_1" cx="0" cy="0" r="1" gradientUnits="userSpaceOnUse" gradientTransform="translate(40.7721 18.5253) rotate(61.7496) scale(113.464)">
<stop stop-color="#E7FF53"/>
<stop offset="1" stop-color="#FF5353"/>
</radialGradient>
</defs>
</svg>