<svg width="22" height="23" viewBox="0 0 22 23" fill="none" xmlns="http://www.w3.org/2000/svg">
<path d="M14.056 16.3893C14.056 16.5514 13.9916 16.7068 13.877 16.8214C13.7624 16.9361 13.607 17.0004 13.4449 17.0004H4.88932C4.75488 17.0004 4.62654 17.1227 4.51655 17.2021L2.44488 18.8338V9.05599C2.44488 8.89391 2.50926 8.73847 2.62387 8.62387C2.73847 8.50926 2.89391 8.44488 3.05599 8.44488H5.41488V7.22266H3.05599C2.56976 7.22266 2.10344 7.41581 1.75963 7.75963C1.41581 8.10344 1.22266 8.56976 1.22266 9.05599V20.056C1.22357 20.1695 1.25606 20.2805 1.31651 20.3765C1.37695 20.4726 1.46296 20.5499 1.56488 20.5999C1.66307 20.6445 1.77133 20.6624 1.87867 20.6517C1.986 20.6409 2.08858 20.602 2.17599 20.5388L5.32321 18.2227H13.5365C13.7682 18.2295 13.9987 18.1887 14.2139 18.1028C14.4291 18.017 14.6244 17.8878 14.7877 17.7234C14.951 17.559 15.0788 17.3628 15.1631 17.147C15.2475 16.9312 15.2867 16.7003 15.2782 16.4688V15.7782H14.056V16.3893Z" fill="white"/>
<path d="M18.9449 2.94434H8.55599C8.06976 2.94434 7.60344 3.13749 7.25963 3.48131C6.91581 3.82512 6.72266 4.29144 6.72266 4.77767V12.111C6.72266 12.5972 6.91581 13.0635 7.25963 13.4074C7.60344 13.7512 8.06976 13.9443 8.55599 13.9443H16.8365L19.7577 16.2116C19.8445 16.2758 19.9468 16.3158 20.0541 16.3276C20.1615 16.3394 20.2701 16.3226 20.3688 16.2788C20.4728 16.2293 20.5606 16.1513 20.6223 16.054C20.6839 15.9567 20.7168 15.844 20.7171 15.7288V4.77767C20.7174 4.30184 20.5326 3.84456 20.2019 3.50244C19.8712 3.16033 19.4204 2.9602 18.9449 2.94434ZM19.556 14.5188L17.4171 12.8504C17.3104 12.7677 17.1793 12.7225 17.0443 12.7221H8.55599C8.39391 12.7221 8.23847 12.6577 8.12387 12.5431C8.00926 12.4285 7.94488 12.2731 7.94488 12.111V4.77767C7.94488 4.61559 8.00926 4.46015 8.12387 4.34555C8.23847 4.23094 8.39391 4.16656 8.55599 4.16656H18.9449C19.1082 4.18138 19.2605 4.25542 19.3731 4.37474C19.4856 4.49405 19.5507 4.6504 19.556 4.81434V14.5188Z" fill="white"/>
</svg>
