<svg width="382" height="261" viewBox="0 0 382 261" fill="none" xmlns="http://www.w3.org/2000/svg">
<path d="M328.29 6.1536C335.539 1.21204 344.43 -0.724715 353.087 0.752014C361.744 2.22875 369.49 7.00346 374.69 14.0686C379.891 21.1338 382.139 29.9368 380.96 38.6202C379.781 47.3035 375.268 55.188 368.373 60.6099L154.425 253.556C150.833 256.344 146.713 258.381 142.313 259.543C137.912 260.706 133.321 260.971 128.815 260.322C124.308 259.674 119.978 258.125 116.084 255.769C112.19 253.412 108.811 250.297 106.15 246.609L7.38679 109.744C4.60002 106.156 2.5656 102.045 1.40488 97.657C0.244155 93.2684 -0.0190901 88.6922 0.630862 84.2011C1.28081 79.7101 2.83065 75.3964 5.18789 71.5172C7.54513 67.6381 10.6615 64.2731 14.3511 61.6229C18.0406 58.9726 22.2278 57.0915 26.6629 56.0918C31.0979 55.092 35.6899 54.9941 40.165 55.8038C44.64 56.6136 48.9064 58.3144 52.7096 60.8048C56.5128 63.2953 59.775 66.5243 62.3014 70.2993L140.468 178.567L327.284 6.99405C327.618 6.69706 327.969 6.41888 328.334 6.16085L328.29 6.1536Z" fill="url(#paint0_linear_2422_21941)"/>
<defs>
<linearGradient id="paint0_linear_2422_21941" x1="204.612" y1="-23.424" x2="157.646" y2="265.022" gradientUnits="userSpaceOnUse">
<stop stop-color="#75F7FF"/>
<stop offset="1" stop-color="#00B13C"/>
</linearGradient>
</defs>
</svg>
