<svg width="29" height="29" viewBox="0 0 29 29" fill="none" xmlns="http://www.w3.org/2000/svg">
<path d="M14.5013 2.4165C7.6863 2.4165 2.41797 7.40692 2.41797 14.1373C2.41797 17.6536 3.85589 20.7107 6.21214 22.8011C6.40547 22.9582 6.5263 23.224 6.53839 23.4898L6.5988 25.6407C6.64714 26.3294 7.33589 26.7765 7.96422 26.4986L10.3567 25.4473C10.5621 25.3748 10.7917 25.3386 10.9971 25.3748C12.0846 25.7011 13.293 25.8582 14.5013 25.8582C21.3163 25.8582 26.5846 20.8678 26.5846 14.1373C26.5846 7.40692 21.3163 2.4165 14.5013 2.4165ZM21.7513 11.4307L18.2109 17.0736C17.643 17.9557 16.4346 18.1853 15.5888 17.5207L12.7613 15.4303C12.6358 15.3361 12.4832 15.2853 12.3263 15.2853C12.1694 15.2853 12.0168 15.3361 11.8913 15.4303L8.07297 18.3303C7.56547 18.729 6.90089 18.1248 7.2513 17.569L10.7917 11.9261C11.3596 11.044 12.568 10.8144 13.4138 11.4428L16.2413 13.5694C16.3668 13.6635 16.5194 13.7144 16.6763 13.7144C16.8332 13.7144 16.9858 13.6635 17.1113 13.5694L20.9296 10.6694C21.4371 10.2707 22.1017 10.8748 21.7513 11.4307Z" fill="black"/>
</svg>
