<svg width="314" height="313" viewBox="0 0 314 313" fill="none" xmlns="http://www.w3.org/2000/svg">
<path d="M4.22054 65.9303C7.63829 60.1386 13.2164 55.9414 19.7282 54.2618C26.2401 52.5821 33.1524 53.5576 38.9452 56.9736L148.179 121.412L212.617 12.1774C216.095 6.50935 221.66 2.43401 228.113 0.829133C234.567 -0.775749 241.392 0.218237 247.12 3.597C252.848 6.97577 257.019 12.469 258.736 18.8935C260.453 25.318 259.577 32.1598 256.299 37.9453L191.861 147.179L301.095 211.617C306.763 215.095 310.838 220.66 312.443 227.113C314.048 233.567 313.054 240.392 309.675 246.12C306.296 251.848 300.803 256.019 294.379 257.736C287.954 259.453 281.112 258.577 275.327 255.299L166.093 190.861L101.655 300.095C98.177 305.763 92.6121 309.838 86.1587 311.443C79.7053 313.048 72.8798 312.054 67.1521 308.675C61.4245 305.297 57.2531 299.803 55.5363 293.379C53.8195 286.954 54.6947 280.113 57.9734 274.327L122.411 165.093L13.1772 100.655C7.38553 97.2372 3.18836 91.659 1.50873 85.1472C-0.170899 78.6354 0.804539 71.723 4.22054 65.9303Z" fill="url(#paint0_linear_2968_22368)"/>
<defs>
<linearGradient id="paint0_linear_2968_22368" x1="123.778" y1="27.4236" x2="190.121" y2="284.629" gradientUnits="userSpaceOnUse">
<stop stop-color="#F3FFA8"/>
<stop offset="1" stop-color="#FF3697"/>
</linearGradient>
</defs>
</svg>
