<svg width="92" height="35" viewBox="0 0 92 35" fill="none" xmlns="http://www.w3.org/2000/svg">
<path fill-rule="evenodd" clip-rule="evenodd" d="M58.022 0.353483C58.0613 0.314651 58.1147 0.292835 58.1703 0.292835H91.2324C91.3073 0.292835 91.3786 0.322088 91.4318 0.374159L91.4543 0.396368L91.4976 0.439252C91.5364 0.478084 91.5589 0.530753 91.5589 0.585669V29.8692C91.5589 29.9241 91.5364 29.9768 91.4976 30.0155L91.4543 30.0585C91.3867 30.1248 91.2956 30.1619 91.2009 30.1619H72.7129H72.5646H72.5444H72.5434H72.5423H72.5413H72.5401H72.5391H72.5379H72.5368H72.5357H72.5347H72.5335H72.5323H72.5313H72.5303H72.529H72.5278H72.5268H72.5254H72.524H72.5231H72.522H72.521H72.52H72.5185H72.5174H72.5163H72.5152H72.5141H72.513H72.5119H72.5109H72.5096H72.5084H72.5073H72.5063H72.5049H72.5038H72.5025H72.5014H72.5004H72.4989H72.4976H72.4964H72.4951H72.4939H72.4928H72.4917H72.4905H72.4895H72.4882H72.487H72.4858H72.4845H72.4834H72.4821H72.4812H72.4799H72.4787H72.4773H72.4761H72.4748H72.4735H72.4723H72.471H72.4698H72.4688H72.4673H72.466H72.4647H72.4634H72.4623H72.461H72.46H72.4586H72.4574H72.4561H72.455H72.454H72.4526H72.4514H72.4503H72.4492H72.448H72.4469H72.4459H72.4448H72.4437H72.4426H72.4415H72.4405H72.4394H72.4385H72.4375H72.4365H72.4351H72.4341H72.4332H72.4319H72.4306H72.4293H72.4282H72.427H72.4259H72.4248H72.4238H72.4226H72.4214H72.4204H72.4194H72.4184H72.4173H72.4163H72.4137H72.4118H72.4098H72.4078H72.4058H72.4038H72.4017H72.3998H72.3977H72.3956H72.3934H72.3914H72.3892H72.387H72.3849H72.3827H72.3805H72.3783H72.376H72.3738H72.3714H72.3692H72.3668H72.3645H72.3622H72.3598H72.3574H72.3549H72.3525H72.3501H72.3476H72.3451H72.3427H72.3401H72.3376H72.335H72.3325H72.3299H72.3272H72.3245H72.3219H72.3192H72.3165H72.3138H72.3111H72.3084H72.3056H72.3028H72.3H72.2971H72.2943H72.2914H72.2886H72.2856H72.2827H72.2797H72.2767H72.2738H72.2708H72.2677C72.2031 30.1619 72.1285 30.1872 72.0623 30.2141C71.9898 30.2436 71.9032 30.2854 71.8064 30.3365C71.6121 30.439 71.3661 30.5841 71.0885 30.7564C70.5328 31.1012 69.8422 31.5602 69.1692 32.0181C68.496 32.4762 67.8391 32.9342 67.3507 33.2777C67.1064 33.4494 66.9043 33.5924 66.7631 33.6927L66.7254 33.7194C66.6949 33.7412 66.6678 33.7604 66.6444 33.777L66.5995 33.809L66.5565 33.8397L66.5454 33.8476L66.5426 33.8496L66.5417 33.8502C66.5417 33.8502 66.5417 33.8502 66.6287 33.9688L66.5417 33.8502L66.5407 33.851L66.5397 33.8517C66.3094 34.0221 66.0415 34.0263 65.833 33.856C65.7385 33.7789 65.7125 33.727 65.6981 33.6568C65.6894 33.6143 65.6848 33.563 65.6805 33.4898L65.6793 33.4667L65.6776 33.4366C65.6744 33.3762 65.6704 33.3051 65.6637 33.2246C65.6292 32.8137 65.614 32.5924 65.5897 32.2028V32.2017L65.5896 32.2006L65.5154 31.2489L65.5152 31.2462L65.5148 31.2434C65.4809 30.9515 65.4024 30.6943 65.297 30.5054C65.2444 30.4111 65.1823 30.3285 65.1106 30.2679C65.0392 30.2074 64.95 30.1619 64.848 30.1619H58.2318C58.1368 30.1619 58.0456 30.1248 57.9785 30.0585C57.9113 29.9922 57.8735 29.9023 57.8735 29.8085V0.585669C57.8735 0.530753 57.8956 0.478084 57.935 0.439252L57.9785 0.396368L58.022 0.353483ZM72.4156 30.4548H72.4167H72.4177H72.4188H72.4199H72.4209H72.422H72.4232H72.4242H72.4256H72.4266H72.4278H72.429H72.4302H72.4315H72.4328H72.434H72.4351H72.4365H72.4375H72.4385H72.4394H72.4405H72.4415H72.4426H72.4437H72.4448H72.4458H72.4469H72.448H72.4492H72.4503H72.4514H72.4526H72.4538H72.455H72.4561H72.4574H72.4586H72.4597H72.461H72.4623H72.4634H72.4644H72.466H72.4672H72.4685H72.4698H72.471H72.4723H72.4735H72.4748H72.4761H72.4773H72.4787H72.4799H72.4812H72.4821H72.4831H72.4844H72.4856H72.487H72.4882H72.4894H72.4905H72.4917H72.4927H72.4939H72.495H72.4962H72.4973H72.4983H72.4993H72.5004H72.502H72.5031H72.5043H72.5054H72.5067H72.5079H72.509H72.51H72.5113H72.5124H72.5135H72.5147H72.5158H72.5167H72.5179H72.519H72.52H72.521H72.5221H72.5231H72.5245H72.5259H72.5268H72.5278H72.529H72.5302H72.5312H72.5323H72.5335H72.5346H72.536H72.537H72.5382H72.5393H72.5404H72.5415H72.5424H72.5434H72.5443H72.5646H72.7129H91.2009C91.374 30.4548 91.5409 30.3867 91.6636 30.2655L91.7069 30.2226C91.8025 30.1289 91.8557 30.0017 91.8557 29.8692V0.585669C91.8557 0.453087 91.8025 0.325936 91.7069 0.232186L91.6636 0.189302L91.641 0.167094C91.5328 0.0601053 91.3858 0 91.2324 0H58.1703C58.0359 0 57.9071 0.0526678 57.8121 0.146417L57.7686 0.189302L57.7251 0.232186C57.6302 0.325936 57.5768 0.453087 57.5768 0.585669V29.8085C57.5768 29.9799 57.6458 30.1443 57.7686 30.2655C57.8914 30.3867 58.058 30.4548 58.2318 30.4548H64.848C64.8574 30.4548 64.8807 30.4589 64.9173 30.4901C64.9539 30.5211 64.9956 30.5723 65.037 30.6466C65.1192 30.7941 65.1889 31.0118 65.2197 31.2741L65.2935 32.2208L65.2936 32.2219C65.3178 32.6123 65.3333 32.8357 65.3679 33.2488C65.3743 33.3247 65.3778 33.3898 65.3811 33.4496L65.3825 33.4756C65.383 33.4861 65.3837 33.4965 65.3842 33.5067C65.3885 33.5798 65.3939 33.65 65.4072 33.7152C65.4372 33.8604 65.5052 33.9685 65.6438 34.0817C65.9707 34.3486 66.391 34.3272 66.7168 34.0867L66.7178 34.086L66.7195 34.0847L66.7304 34.077L66.7732 34.0464C66.8109 34.0196 66.866 33.9804 66.9364 33.9304C67.0773 33.8304 67.2791 33.6876 67.5229 33.5161C68.0106 33.1732 68.6662 32.7161 69.3377 32.2592C70.0097 31.802 70.6962 31.3458 71.2465 31.0043C71.522 30.8333 71.7611 30.6925 71.9463 30.5948C72.0391 30.5458 72.1157 30.5091 72.1753 30.4849C72.205 30.4728 72.2285 30.4647 72.2461 30.4598C72.2498 30.4589 72.2529 30.458 72.2556 30.4573C72.2601 30.4562 72.2635 30.4556 72.2655 30.4552L72.2678 30.455L72.2708 30.4548H72.2738H72.2767H72.2797H72.2827H72.2856H72.2886H72.2914H72.2943H72.2971H72.3H72.3028H72.3056H72.3084H72.3111H72.3138H72.3165H72.3192H72.3219H72.3245H72.3272H72.3299H72.3325H72.335H72.3376H72.3401H72.3427H72.3451H72.3476H72.3501H72.3525H72.3549H72.3574H72.3598H72.3622H72.3645H72.3668H72.3692H72.3714H72.3738H72.376H72.3783H72.3805H72.3827H72.3849H72.387H72.3892H72.3914H72.3934H72.3956H72.3977H72.3998H72.4017H72.4038H72.4058H72.4078H72.4098H72.4118H72.4137H72.4156ZM0 5.8567H4.37761L6.67772 17.8629L9.86817 5.8567H13.1328L16.3975 17.8629L18.6234 5.8567H23.1495L18.846 24.3053H14.691L11.5747 12.9579H11.4263L8.38425 24.3053H4.30342L0 5.8567ZM35.0209 24.3053H39.6212L33.4627 5.8567H28.9368L22.8526 24.3053H27.3044L28.4916 20.6449H33.9822L35.0209 24.3053ZM31.311 11.7134H31.1627L29.3819 17.4236H32.9434L31.311 11.7134ZM47.3376 24.3053H43.1825V17.8629L36.95 5.8567H41.5503L45.2601 13.9097H45.4085L49.1183 5.8567H53.7185L47.3376 17.8629V24.3053ZM64.1061 8.48767C64.1061 8.48767 64.1061 8.48756 64.4029 8.4922C64.6996 8.49686 64.6996 8.49696 64.6996 8.49696L64.6995 8.49852V8.50351L64.6992 8.52325L64.698 8.60034L64.6969 8.6685C64.696 8.72895 64.6949 8.8044 64.6935 8.8933C64.6898 9.14579 64.6846 9.50685 64.6788 9.94078C64.6672 10.8087 64.6533 11.968 64.644 13.1341C64.6347 14.3005 64.6301 15.4723 64.637 16.3656C64.6406 16.8126 64.6469 17.1876 64.6569 17.4566C64.6618 17.5916 64.6677 17.6961 64.6741 17.7684C64.675 17.7791 64.6759 17.7887 64.6768 17.7972C64.6776 17.8046 64.6783 17.8112 64.6791 17.817L64.6811 17.8201L64.693 17.8746L64.4029 17.9361C64.693 17.8746 64.693 17.8746 64.693 17.8746L64.6936 17.877L64.695 17.8838L64.7005 17.9092L64.7193 17.9952L64.7658 18.2092C64.8807 18.6415 65.1578 19.4169 65.765 20.0814C66.3665 20.7397 67.3036 21.3037 68.7805 21.3037C70.2571 21.3037 71.1808 20.74 71.7669 20.0839C72.3622 19.4177 72.6229 18.6394 72.7281 18.2085C72.7373 18.1707 72.7457 18.138 72.7542 18.1117L72.7561 18.0995C72.7621 18.0623 72.7725 17.9984 72.7911 17.888C72.791 17.8886 72.7911 17.8883 72.7911 17.888C72.7914 17.8853 72.7927 17.8739 72.7943 17.8508C72.7961 17.8247 72.7979 17.79 72.7995 17.7464C72.8029 17.6593 72.8059 17.5424 72.8084 17.3991C72.8135 17.1129 72.8166 16.7267 72.8184 16.2741C72.8219 15.3693 72.8195 14.2034 72.8149 13.0507C72.8103 11.8979 72.8034 10.7589 72.7975 9.90804C72.7946 9.48258 72.792 9.1292 72.7901 8.88219C72.7892 8.75868 72.7884 8.66176 72.788 8.59574L72.7873 8.52039L72.7872 8.5011V8.49622V8.49499C72.7872 8.49499 72.7872 8.49459 73.0839 8.4922C73.2148 8.49116 73.2879 8.49058 73.3289 8.49027C73.3806 8.48987 73.3806 8.48993 73.3806 8.48993V8.49147L73.3807 8.49637L73.3809 8.51571L73.3815 8.59114L73.3825 8.7234L73.3837 8.87778C73.3856 9.12496 73.3882 9.47844 73.3911 9.90407C73.3969 10.7553 73.4038 11.8949 73.4085 13.0483C73.4131 14.2016 73.4155 15.3692 73.4119 16.2763C73.4102 16.7297 73.4071 17.119 73.4019 17.4093C73.3994 17.5542 73.3963 17.6759 73.3927 17.769C73.3894 17.854 73.385 17.9349 73.3767 17.9843C73.3582 18.0934 73.3481 18.1556 73.3425 18.1907L73.3393 18.2108L73.3377 18.2211L73.3369 18.2263C73.3364 18.2295 73.3357 18.2337 73.3351 18.2373C73.3348 18.2391 73.3342 18.2424 73.3335 18.2464C73.3331 18.2485 73.3318 18.2545 73.3299 18.2623C73.3292 18.2649 73.3285 18.2676 73.3277 18.2705C73.3272 18.2726 73.3263 18.2753 73.3254 18.2785C73.3234 18.2849 73.3204 18.2936 73.3163 18.3033L73.315 18.3066C73.3129 18.3147 73.3097 18.3272 73.3052 18.3456C73.1886 18.8234 72.8968 19.7049 72.2122 20.4712C71.5185 21.2477 70.4351 21.8894 68.7805 21.8894C67.1262 21.8894 66.0316 21.248 65.3242 20.4736C64.6253 19.7087 64.3161 18.8286 64.1898 18.3509C64.1603 18.2389 64.1403 18.1476 64.1277 18.0833C64.122 18.0541 64.1177 18.0305 64.1147 18.0129C64.1125 18.0063 64.1111 18.001 64.1101 17.9974C64.1042 17.9763 64.1001 17.9555 64.0971 17.9383C64.0912 17.9033 64.0866 17.8624 64.0828 17.8194C64.075 17.7324 64.0688 17.6162 64.0637 17.478C64.0534 17.2004 64.047 16.8187 64.0435 16.3701C64.0365 15.4721 64.0412 14.2966 64.0504 13.1295C64.0597 11.9621 64.0737 10.8016 64.0852 9.93312C64.091 9.49882 64.0962 9.1375 64.1 8.88468C64.1019 8.75829 64.1034 8.65903 64.1045 8.59137L64.1057 8.5141L64.106 8.49428V8.48925L64.1061 8.48767ZM72.8535 18.4194C72.8419 18.41 72.8334 18.4017 72.8287 18.3969L72.8268 18.395C72.831 18.3993 72.8399 18.4085 72.8535 18.4194ZM73.264 17.9991C73.2691 18.0047 73.2628 17.9976 73.2581 17.9926C73.261 17.9957 73.2632 17.9982 73.264 17.9991ZM77.1647 8.419H76.8679V8.71183V15.7398V21.6698H77.4615V16.0327H81.2796C81.8179 16.0327 82.3773 15.9768 82.9098 15.7887C83.5416 15.5655 84.0393 15.2913 84.4338 14.8914C84.8283 14.4915 85.0996 13.9863 85.3136 13.3336C85.4347 12.9638 85.4748 12.5816 85.4748 12.2128C85.4748 11.8623 85.4389 11.4987 85.3284 11.1453C85.1183 10.4735 84.8415 9.95296 84.4154 9.53932C83.9911 9.12748 83.4414 8.8434 82.7249 8.60504C82.3132 8.4681 81.8848 8.419 81.4682 8.419H77.1647ZM81.2796 15.4471H77.4615V9.00467H81.4682C81.8392 9.00467 82.2004 9.04865 82.5353 9.16004C83.207 9.38346 83.6635 9.63105 83.9991 9.95675C84.3328 10.2807 84.5691 10.7038 84.7611 11.3179C84.8489 11.5985 84.8812 11.8998 84.8812 12.2128C84.8812 12.5419 84.8452 12.8592 84.7488 13.1535C84.5524 13.7526 84.3191 14.1681 84.0084 14.4829C83.6978 14.7978 83.2899 15.0324 82.7097 15.2374C82.2646 15.3946 81.7796 15.4471 81.2796 15.4471Z" fill="white"/>
</svg>
