<?xml version="1.0" standalone="no"?>
<!DOCTYPE svg PUBLIC "-//W3C//DTD SVG 20010904//EN"
 "http://www.w3.org/TR/2001/REC-SVG-20010904/DTD/svg10.dtd">
<svg version="1.0" xmlns="http://www.w3.org/2000/svg"
 width="119.000000pt" height="16.000000pt" viewBox="0 0 119.000000 16.000000"
 preserveAspectRatio="xMidYMid meet">

<g transform="translate(0.000000,16.000000) scale(0.100000,-0.100000)"
fill="#000000" stroke="none">
<path d="M0 80 c0 -47 4 -80 10 -80 6 0 10 16 10 35 0 31 3 35 25 35 14 0 25
5 25 10 0 6 -11 10 -25 10 -20 0 -25 5 -25 25 0 20 5 25 25 25 14 0 25 5 25
10 0 6 -16 10 -35 10 l-35 0 0 -80z"/>
<path d="M100 118 c-6 -24 -15 -58 -20 -77 -11 -40 -4 -54 14 -28 17 22 42 22
55 0 5 -10 12 -15 16 -12 9 10 -29 152 -42 156 -7 3 -17 -14 -23 -39z m32 -38
c3 -20 0 -30 -9 -30 -13 0 -18 41 -6 53 10 10 10 9 15 -23z"/>
<path d="M170 158 c7 -50 40 -153 50 -153 12 0 54 144 45 154 -11 10 -24 -15
-30 -59 -4 -28 -10 -50 -15 -50 -4 0 -11 23 -16 52 -5 28 -15 53 -21 56 -7 2
-13 2 -13 0z"/>
<path d="M302 148 c-16 -16 -16 -120 0 -136 7 -7 20 -12 29 -12 32 0 49 29 49
80 0 51 -17 80 -49 80 -9 0 -22 -5 -29 -12z m53 -68 c0 -48 -2 -55 -20 -55
-16 0 -21 8 -23 44 -4 54 3 73 25 69 15 -3 18 -14 18 -58z"/>
<path d="M410 80 c0 -47 4 -80 10 -80 6 0 10 13 10 30 0 38 14 38 30 0 7 -16
16 -30 21 -30 12 0 11 4 -3 35 -9 19 -9 28 0 37 16 16 15 61 0 76 -7 7 -25 12
-40 12 l-28 0 0 -80z m55 30 c0 -16 -6 -26 -17 -28 -14 -3 -18 3 -18 28 0 25
4 31 18 28 11 -2 17 -12 17 -28z"/>
<path d="M520 80 c0 -47 4 -80 10 -80 6 0 10 33 10 80 0 47 -4 80 -10 80 -6 0
-10 -33 -10 -80z"/>
<path d="M560 150 c0 -5 7 -10 15 -10 12 0 15 -14 15 -70 0 -40 4 -70 10 -70
6 0 10 30 10 70 0 56 3 70 15 70 8 0 15 5 15 10 0 6 -18 10 -40 10 -22 0 -40
-4 -40 -10z"/>
<path d="M670 80 l0 -80 35 0 c19 0 35 5 35 10 0 6 -11 10 -25 10 -20 0 -25 5
-25 25 0 20 5 25 25 25 14 0 25 5 25 10 0 6 -11 10 -25 10 -20 0 -25 5 -25 25
0 20 5 25 25 25 14 0 25 5 25 10 0 6 -16 10 -35 10 l-35 0 0 -80z"/>
<path d="M792 148 c-16 -16 -16 -90 0 -106 17 -17 369 -17 386 0 16 16 16 90
0 106 -17 17 -369 17 -386 0z m383 -53 l0 -50 -190 0 -190 0 -3 39 c-6 69 -13
67 195 64 l188 -3 0 -50z"/>
<path d="M850 95 c0 -27 4 -35 18 -35 14 0 15 2 2 10 -12 8 -13 11 -1 19 11 7
11 9 0 14 -12 4 -11 7 1 16 13 9 13 11 -2 11 -14 0 -18 -8 -18 -35z"/>
<path d="M891 95 c1 -22 3 -32 6 -22 5 18 5 18 19 0 12 -16 13 -14 13 22 0 29
-2 35 -8 20 -8 -19 -8 -19 -19 0 -10 17 -11 14 -11 -20z"/>
<path d="M940 96 c0 -33 1 -34 38 -34 20 0 31 3 25 5 -7 3 -13 17 -13 32 0 21
-5 27 -25 29 -22 2 -25 -2 -25 -32z m35 14 c3 -5 2 -10 -4 -10 -6 0 -8 -7 -5
-15 4 -8 1 -15 -5 -15 -6 0 -11 11 -11 25 0 25 14 33 25 15z"/>
<path d="M1023 95 c0 -22 2 -30 4 -17 2 12 2 30 0 40 -3 9 -5 -1 -4 -23z"/>
<path d="M1040 118 c0 -6 8 -20 18 -31 16 -19 16 -20 0 -14 -10 4 -18 2 -18
-3 0 -5 11 -9 25 -8 14 1 25 8 25 15 0 19 18 16 23 -4 3 -10 5 0 5 22 0 22 -2
32 -5 23 -5 -21 -23 -24 -23 -5 0 7 -11 14 -25 15 -14 1 -25 -3 -25 -10z m38
-16 c2 -7 -2 -10 -12 -6 -9 3 -16 11 -16 16 0 13 23 5 28 -10z"/>
</g>
</svg>
