<svg width="26" height="23" viewBox="0 0 26 23" fill="none" xmlns="http://www.w3.org/2000/svg">
<path d="M13.806 12.05C14.4525 12.05 15.0725 12.2999 15.5296 12.7447C15.9867 13.1895 16.2435 13.7928 16.2435 14.4219L16.2419 15.6054C16.4093 18.5094 14.1107 19.9578 9.8475 19.9578C5.59894 19.9578 3.25 18.5284 3.25 15.6466V14.4219C3.25 13.7928 3.50681 13.1895 3.96393 12.7447C4.42105 12.2999 5.04103 12.05 5.6875 12.05H13.806ZM20.306 12.05C20.9525 12.05 21.5725 12.2999 22.0296 12.7447C22.4867 13.1895 22.7435 13.7928 22.7435 14.4219V15.2544C22.8897 17.8595 20.8585 19.1656 17.1462 19.1656C16.6424 19.1656 16.1687 19.1419 15.7259 19.0945C16.1946 18.6785 16.554 18.1593 16.7741 17.5804L17.1462 17.5844C20.046 17.5844 21.2046 16.8388 21.1193 15.2979V14.4219C21.1193 14.2122 21.0337 14.0111 20.8813 13.8628C20.729 13.7145 20.5223 13.6313 20.3068 13.6313H16.9536C16.7906 13.0187 16.4425 12.4679 15.9542 12.05H20.3068H20.306ZM13.806 13.6313H5.6875C5.47201 13.6313 5.26535 13.7145 5.11298 13.8628C4.9606 14.0111 4.875 14.2122 4.875 14.4219V15.6473C4.875 17.4587 6.383 18.3766 9.8475 18.3766C13.299 18.3766 14.7225 17.4792 14.6185 15.6489V14.4219C14.6185 14.2122 14.5329 14.0111 14.3805 13.8628C14.2282 13.7145 14.0215 13.6313 13.806 13.6313ZM9.75 2.5625C10.8277 2.5625 11.8612 2.97907 12.6232 3.72058C13.3852 4.46208 13.8133 5.46777 13.8133 6.51642C13.8133 7.56506 13.3852 8.57075 12.6232 9.31226C11.8612 10.0538 10.8277 10.4703 9.75 10.4703C8.67234 10.4703 7.63882 10.0538 6.8768 9.31226C6.11479 8.57075 5.68669 7.56506 5.68669 6.51642C5.68669 5.46777 6.11479 4.46208 6.8768 3.72058C7.63882 2.97907 8.67234 2.5625 9.75 2.5625ZM17.875 4.14375C18.737 4.14375 19.5636 4.47694 20.1731 5.07002C20.7826 5.66311 21.125 6.4675 21.125 7.30625C21.125 8.145 20.7826 8.94939 20.1731 9.54248C19.5636 10.1356 18.737 10.4688 17.875 10.4688C17.013 10.4688 16.1864 10.1356 15.5769 9.54248C14.9674 8.94939 14.625 8.145 14.625 7.30625C14.625 6.4675 14.9674 5.66311 15.5769 5.07002C16.1864 4.47694 17.013 4.14375 17.875 4.14375ZM9.75 4.14375C9.4298 4.14375 9.11273 4.20512 8.8169 4.32436C8.52107 4.4436 8.25227 4.61837 8.02585 4.83869C7.79943 5.05901 7.61983 5.32057 7.49729 5.60844C7.37476 5.8963 7.31169 6.20483 7.31169 6.51642C7.31169 6.828 7.37476 7.13653 7.49729 7.4244C7.61983 7.71226 7.79943 7.97382 8.02585 8.19414C8.25227 8.41447 8.52107 8.58924 8.8169 8.70847C9.11273 8.82771 9.4298 8.88908 9.75 8.88908C10.3967 8.88908 11.0169 8.63911 11.4741 8.19414C11.9314 7.74918 12.1883 7.14569 12.1883 6.51642C12.1883 5.88715 11.9314 5.28365 11.4741 4.83869C11.0169 4.39373 10.3967 4.14375 9.75 4.14375ZM17.875 5.725C17.444 5.725 17.0307 5.8916 16.726 6.18814C16.4212 6.48468 16.25 6.88688 16.25 7.30625C16.25 7.72562 16.4212 8.12782 16.726 8.42436C17.0307 8.7209 17.444 8.8875 17.875 8.8875C18.306 8.8875 18.7193 8.7209 19.024 8.42436C19.3288 8.12782 19.5 7.72562 19.5 7.30625C19.5 6.88688 19.3288 6.48468 19.024 6.18814C18.7193 5.8916 18.306 5.725 17.875 5.725Z" fill="white"/>
</svg>
