<svg width="386" height="386" viewBox="0 0 386 386" fill="none" xmlns="http://www.w3.org/2000/svg">
<g clip-path="url(#clip0_2723_34358)" filter="url(#filter0_b_2723_34358)">
<path d="M342.983 243.806C335.528 137.355 175.143 0 175.143 0C175.143 0 35.4074 158.352 42.858 264.772C49.6959 362.544 127.086 386.105 186.711 386C187.694 371.708 188.288 345.554 188.288 345.554C181.789 343.74 175.197 341.39 169.768 338.662C164.472 335.938 159.449 332.757 154.75 329.248C145.34 322.235 137.378 313.555 131.598 303.938C139.665 311.751 149.087 317.672 159.082 321.676C164.043 323.667 169.171 325.255 174.304 326.391C179.35 327.5 184.88 328.288 189.404 328.3C189.404 328.3 190.696 296.257 190.696 272.469C184.689 270.681 179.74 268.464 174.639 265.873C169.316 263.16 164.293 259.995 159.594 256.483C150.184 249.457 142.222 240.789 136.438 231.149C144.505 239.001 153.954 244.903 163.926 248.915C168.921 250.917 174.015 252.521 179.143 253.626C182.909 254.441 186.918 255.081 190.586 255.378C190.341 236.808 189.747 217.645 188.76 198.052L188.225 201.659C183.717 200.164 180.486 198.372 176.958 196.319C173.539 194.298 170.393 191.991 167.446 189.474C161.568 184.459 156.768 178.429 153.497 171.969C159.078 176.629 165.331 179.916 171.774 181.926C175.002 182.921 178.265 183.651 181.497 184.068C183.628 184.341 185.922 184.537 187.96 184.537C187.745 181.036 187.538 177.515 187.292 173.991C182.617 106.951 186.625 130.376 193.322 184.482C195.617 184.587 198.423 184.396 200.968 184.053C204.227 183.631 207.498 182.905 210.718 181.922C217.165 179.927 223.449 176.653 228.991 171.993C225.744 178.452 220.924 184.466 215.046 189.482C212.107 192.003 208.93 194.294 205.534 196.316C202.338 198.185 199.282 199.789 195.391 201.202C197.011 214.854 198.775 229.783 200.57 245.305C204.855 245.199 209.902 244.45 214.535 243.435C219.69 242.311 224.795 240.738 229.787 238.732C239.751 234.728 249.181 228.823 257.275 220.982C251.479 230.614 243.517 239.279 234.115 246.292C229.412 249.789 224.389 252.97 219.074 255.706C213.836 258.364 208.735 260.635 202.51 262.427C205.199 285.984 209.75 320.9 209.75 320.9C214.234 320.9 219.749 320.084 224.811 318.987C229.967 317.867 235.099 316.279 240.063 314.277C250.031 310.268 259.461 304.351 267.551 296.538C261.756 306.155 253.798 314.835 244.403 321.86C239.689 325.357 234.67 328.538 229.354 331.262C223.956 334.013 218.761 336.367 212.232 338.178C212.232 338.178 214.394 368.952 216.025 384.029C275.33 376.192 349.887 342.334 342.983 243.806Z" fill="url(#paint0_linear_2723_34358)"/>
<path d="M216.468 383.466C245.94 379.503 279.061 369.097 304.005 347.548C329.07 325.896 345.925 292.955 342.484 243.841C340.628 217.336 329.247 188.869 313.18 161.052C297.116 133.242 276.391 106.119 255.888 82.3099C235.387 58.5026 215.118 38.0184 199.973 23.4857C192.401 16.2196 186.111 10.442 181.714 6.48136C179.516 4.50106 177.791 2.97506 176.616 1.94443C176.028 1.42911 175.578 1.03764 175.276 0.775154C175.246 0.749759 175.218 0.725572 175.192 0.702596C175.169 0.729059 175.144 0.756917 175.119 0.786163C174.855 1.08828 174.464 1.5386 173.954 2.13071C172.934 3.31492 171.438 5.06625 169.536 7.33337C165.733 11.8676 160.307 18.4649 153.818 26.7144C140.841 43.2141 123.617 66.3206 106.627 92.7489C89.6355 119.179 72.8845 148.921 60.8478 178.693C48.8085 208.471 41.5017 238.241 43.3568 264.737C46.7653 313.475 67.7448 343.662 95.2632 361.672C122.663 379.603 156.596 385.491 186.244 385.5C186.72 378.395 187.103 368.546 187.368 360.401C187.504 356.24 187.609 352.525 187.68 349.851C187.715 348.514 187.742 347.437 187.76 346.694C187.766 346.457 187.771 346.255 187.775 346.089L187.779 345.931C181.382 344.125 174.906 341.803 169.544 339.109L169.54 339.106C164.217 336.369 159.171 333.173 154.451 329.649C154.451 329.649 154.451 329.649 154.451 329.649L154.75 329.248C145.884 322.64 138.303 314.552 132.622 305.595L216.468 383.466ZM216.468 383.466C215.666 375.935 214.743 364.776 214.015 355.411C213.643 350.623 213.322 346.306 213.094 343.185C212.98 341.625 212.889 340.365 212.827 339.494C212.798 339.094 212.775 338.776 212.759 338.549C219.15 336.741 224.277 334.411 229.581 331.707L229.582 331.707C234.924 328.969 239.967 325.773 244.701 322.261L244.703 322.26C254.146 315.199 262.149 306.471 267.98 296.796L267.204 296.178C259.162 303.945 249.788 309.827 239.877 313.813L239.876 313.813C234.937 315.805 229.832 317.385 224.705 318.499C219.824 319.556 214.542 320.347 210.188 320.397L210.045 319.289C209.915 318.289 209.727 316.833 209.492 315.012C209.024 311.371 208.371 306.271 207.634 300.435C206.178 288.9 204.393 274.491 203.054 262.789C209.137 261.004 214.16 258.76 219.3 256.152L219.302 256.15C224.644 253.401 229.691 250.205 234.414 246.693L234.414 246.693C243.865 239.643 251.872 230.931 257.704 221.24L256.927 220.623C248.882 228.416 239.508 234.286 229.601 238.268C224.634 240.264 219.556 241.829 214.428 242.947L214.428 242.947C209.978 243.921 205.158 244.647 201.014 244.791C199.254 229.581 197.525 214.947 195.934 201.535C199.688 200.142 202.678 198.565 205.787 196.747L205.79 196.745C209.211 194.709 212.411 192.401 215.371 189.861C221.295 184.807 226.158 178.741 229.438 172.217L228.669 171.61C223.181 176.224 216.958 179.468 210.57 181.444C207.375 182.42 204.132 183.139 200.904 183.557L200.901 183.557C198.53 183.877 195.941 184.062 193.766 183.998C192.113 170.651 190.624 159.189 189.392 150.519C188.15 141.779 187.162 135.829 186.522 133.665C186.441 133.391 186.36 133.158 186.278 132.981C186.237 132.893 186.189 132.803 186.13 132.724C186.081 132.656 185.981 132.536 185.817 132.474C185.726 132.439 185.617 132.424 185.502 132.447C185.389 132.469 185.301 132.522 185.237 132.577C185.121 132.675 185.061 132.8 185.029 132.879C184.96 133.049 184.916 133.273 184.884 133.518C184.754 134.514 184.732 136.568 184.82 139.753C184.998 146.15 185.625 157.266 186.794 174.026C186.993 176.884 187.167 179.74 187.34 182.588C187.369 183.07 187.399 183.551 187.428 184.032C185.556 184.002 183.494 183.82 181.561 183.572C178.36 183.159 175.125 182.435 171.922 181.448C165.539 179.457 159.346 176.201 153.818 171.585L153.051 172.195C156.353 178.717 161.197 184.799 167.121 189.854C170.087 192.388 173.256 194.712 176.703 196.75L176.706 196.752C180.242 198.809 183.509 200.622 188.068 202.133L188.466 202.265C189.321 220.202 189.847 237.767 190.079 254.833C186.587 254.521 182.811 253.908 179.249 253.137L179.248 253.137C174.151 252.039 169.085 250.444 164.112 248.451C154.196 244.461 144.804 238.594 136.786 230.791L136.009 231.406C141.829 241.106 149.836 249.822 159.294 256.883C164.015 260.412 169.062 263.592 174.412 266.318L174.413 266.319C179.428 268.867 184.31 271.06 190.196 272.841C190.189 284.646 189.87 298.422 189.55 309.29C189.389 314.781 189.227 319.528 189.106 322.903C189.045 324.591 188.995 325.935 188.96 326.857C188.945 327.248 188.933 327.562 188.923 327.795C184.539 327.732 179.258 326.967 174.411 325.903L216.468 383.466ZM187.744 201.496C183.485 200.035 180.359 198.299 176.958 196.319C173.539 194.298 170.393 191.991 167.446 189.474C161.911 184.751 157.331 179.128 154.085 173.095C153.78 172.851 153.478 172.604 153.177 172.353L153.497 171.969L153.943 171.743C154.117 172.086 154.295 172.428 154.477 172.768C159.806 177.007 165.705 180.032 171.774 181.926C175.002 182.921 178.265 183.651 181.497 184.068C183.454 184.319 185.551 184.504 187.459 184.533L187.744 201.496ZM187.744 201.496L187.731 201.585L188.225 201.659L188.383 201.184C188.355 201.175 188.327 201.166 188.3 201.156L187.744 201.496ZM185.326 133.318C185.327 133.32 185.329 133.322 185.331 133.325C185.338 133.337 185.351 133.361 185.37 133.401C185.379 133.42 185.388 133.44 185.397 133.462C184.991 136.064 185.513 148.475 187.292 173.991C187.492 176.852 187.666 179.711 187.839 182.559C187.869 183.052 187.899 183.544 187.929 184.037L193.322 184.482C189.854 156.464 187.107 136.673 185.914 133.411C185.93 133.331 185.944 133.282 185.954 133.258C185.965 133.23 185.952 133.281 185.886 133.337C185.675 132.795 185.514 132.794 185.41 133.384C185.362 133.358 185.335 133.329 185.326 133.318ZM185.326 133.318C185.326 133.317 185.325 133.317 185.325 133.316C185.322 133.312 185.322 133.313 185.326 133.318ZM228.991 171.993L229.313 172.375C229.012 172.628 228.71 172.876 228.405 173.121C228.606 172.746 228.801 172.37 228.991 171.993ZM228.991 171.993L228.544 171.768C228.371 172.112 228.194 172.454 228.013 172.795C228.341 172.532 228.667 172.265 228.991 171.993ZM202.51 262.427C208.735 260.635 213.836 258.364 219.074 255.706C224.389 252.97 229.412 249.789 234.115 246.292C242.974 239.684 250.554 231.61 256.249 222.642C256.711 222.214 257.169 221.781 257.623 221.341L257.275 220.982L256.847 220.724C256.525 221.259 256.196 221.79 255.861 222.319C248.091 229.498 239.176 234.959 229.787 238.732C224.795 240.738 219.69 242.311 214.535 243.435C209.902 244.45 204.855 245.199 200.57 245.305L202.51 262.427ZM202.51 262.427C205.199 285.984 209.75 320.9 209.75 320.9C214.234 320.9 219.749 320.084 224.811 318.987L202.51 262.427ZM267.551 296.538L267.899 296.898C267.446 297.335 266.988 297.767 266.527 298.193C266.876 297.644 267.217 297.093 267.551 296.538ZM267.551 296.538L267.123 296.28C266.802 296.813 266.474 297.342 266.14 297.869C266.615 297.432 267.085 296.988 267.551 296.538Z" stroke="white" stroke-opacity="0.75"/>
</g>
<defs>
<filter id="filter0_b_2723_34358" x="-15" y="-15" width="416" height="416" filterUnits="userSpaceOnUse" color-interpolation-filters="sRGB">
<feFlood flood-opacity="0" result="BackgroundImageFix"/>
<feGaussianBlur in="BackgroundImage" stdDeviation="7.5"/>
<feComposite in2="SourceAlpha" operator="in" result="effect1_backgroundBlur_2723_34358"/>
<feBlend mode="normal" in="SourceGraphic" in2="effect1_backgroundBlur_2723_34358" result="shape"/>
</filter>
<linearGradient id="paint0_linear_2723_34358" x1="193" y1="0" x2="193" y2="386" gradientUnits="userSpaceOnUse">
<stop stop-color="white" stop-opacity="0.77"/>
<stop offset="1" stop-color="white" stop-opacity="0.89"/>
</linearGradient>
<clipPath id="clip0_2723_34358">
<rect width="386" height="386" fill="white"/>
</clipPath>
</defs>
</svg>
