<svg width="14" height="15" viewBox="0 0 14 15" fill="none" xmlns="http://www.w3.org/2000/svg">
<path d="M2.125 11.3333H3.54167V12.75H12.0417V1.41667H3.54167V2.83333H2.125V0.708333C2.125 0.520472 2.19963 0.340304 2.33247 0.207466C2.4653 0.0746277 2.64547 0 2.83333 0H12.75C12.9379 0 13.118 0.0746277 13.2509 0.207466C13.3837 0.340304 13.4583 0.520472 13.4583 0.708333V13.4583C13.4583 13.6462 13.3837 13.8264 13.2509 13.9592C13.118 14.092 12.9379 14.1667 12.75 14.1667H2.83333C2.64547 14.1667 2.4653 14.092 2.33247 13.9592C2.19963 13.8264 2.125 13.6462 2.125 13.4583V11.3333ZM3.54167 6.375H8.5V7.79167H3.54167V9.91667L0 7.08333L3.54167 4.25V6.375Z" fill="#6E7494"/>
</svg>
