<svg width="89" height="89" viewBox="0 0 75 75" fill="#6E7494" xmlns="http://www.w3.org/2000/svg">
<path d="M54.5088 11.3088L53.0946 9.89462V9.89462L54.5088 11.3088ZM62.2205 11.3088L60.8063 12.7231V12.7231L62.2205 11.3088ZM64.6912 13.7795L66.1054 12.3653V12.3653L64.6912 13.7795ZM64.6912 21.4912L66.1054 22.9054L64.6912 21.4912ZM68.547 30.8V32.8V30.8ZM64.6912 62.2205L63.2769 60.8063H63.2769L64.6912 62.2205ZM62.2205 64.6912L60.8063 63.277V63.277L62.2205 64.6912ZM21.4912 64.6912L22.9054 66.1054L21.4912 64.6912ZM13.7795 64.6912L15.1937 63.277L13.7795 64.6912ZM11.3088 62.2205L12.723 60.8063L12.723 60.8063L11.3088 62.2205ZM11.3088 54.5088L12.723 55.923L11.3088 54.5088ZM7.45298 30.8L7.45299 28.8H7.45298V30.8ZM13.7795 11.3088L15.1937 12.723H15.1937L13.7795 11.3088ZM21.4912 11.3088L22.9054 9.89462V9.89462L21.4912 11.3088ZM47.2 7.45299C47.2 3.33682 43.8632 0 39.747 0V4C41.654 4 43.2 5.54596 43.2 7.45299H47.2ZM53.0946 9.89462C50.9194 12.0699 47.2 10.5293 47.2 7.45299H43.2C43.2 14.0929 51.2279 17.4182 55.923 12.723L53.0946 9.89462ZM63.6347 9.89462C60.7241 6.98405 56.0052 6.98405 53.0946 9.89462L55.923 12.723C57.2715 11.3746 59.4578 11.3746 60.8063 12.7231L63.6347 9.89462ZM66.1054 12.3653L63.6347 9.89462L60.8063 12.7231L63.2769 15.1937L66.1054 12.3653ZM66.1054 22.9054C69.0159 19.9948 69.0159 15.2759 66.1054 12.3653L63.2769 15.1937C64.6254 16.5422 64.6254 18.7285 63.2769 20.077L66.1054 22.9054ZM68.547 28.8C65.4707 28.8 63.9301 25.0806 66.1054 22.9054L63.2769 20.077C58.5818 24.7721 61.9071 32.8 68.547 32.8V28.8ZM76 36.253C76 32.1368 72.6632 28.8 68.547 28.8V32.8C70.454 32.8 72 34.346 72 36.253H76ZM76 39.747V36.253H72V39.747H76ZM68.547 47.2C72.6632 47.2 76 43.8632 76 39.747H72C72 41.654 70.454 43.2 68.547 43.2V47.2ZM66.1054 53.0946C63.9301 50.9194 65.4707 47.2 68.547 47.2V43.2C61.9071 43.2 58.5818 51.2279 63.2769 55.923L66.1054 53.0946ZM66.1054 63.6347C69.016 60.7242 69.0159 56.0052 66.1054 53.0946L63.2769 55.923C64.6254 57.2715 64.6254 59.4578 63.2769 60.8063L66.1054 63.6347ZM63.6347 66.1054L66.1054 63.6347L63.2769 60.8063L60.8063 63.277L63.6347 66.1054ZM53.0946 66.1054C56.0052 69.016 60.7242 69.016 63.6347 66.1054L60.8063 63.277C59.4578 64.6254 57.2715 64.6254 55.923 63.277L53.0946 66.1054ZM47.2 68.547C47.2 65.4707 50.9194 63.9301 53.0946 66.1054L55.923 63.277C51.2279 58.5818 43.2 61.9071 43.2 68.547H47.2ZM39.747 76C43.8632 76 47.2 72.6632 47.2 68.547H43.2C43.2 70.454 41.654 72 39.747 72V76ZM36.253 76H39.747V72H36.253V76ZM28.8 68.547C28.8 72.6632 32.1368 76 36.253 76V72C34.346 72 32.8 70.454 32.8 68.547H28.8ZM22.9054 66.1054C25.0806 63.9301 28.8 65.4707 28.8 68.547H32.8C32.8 61.9071 24.7721 58.5818 20.0769 63.277L22.9054 66.1054ZM12.3652 66.1054C15.2758 69.016 19.9948 69.016 22.9054 66.1054L20.0769 63.277C18.7285 64.6254 16.5421 64.6254 15.1937 63.277L12.3652 66.1054ZM9.8946 63.6347L12.3652 66.1054L15.1937 63.277L12.723 60.8063L9.8946 63.6347ZM9.89461 53.0946C6.98403 56.0052 6.98403 60.7242 9.8946 63.6347L12.723 60.8063C11.3746 59.4578 11.3746 57.2715 12.723 55.923L9.89461 53.0946ZM7.45298 47.2C10.5293 47.2 12.0699 50.9194 9.89461 53.0946L12.723 55.923C17.4181 51.2279 14.0929 43.2 7.45298 43.2V47.2ZM0 39.747C0 43.8632 3.33681 47.2 7.45298 47.2V43.2C5.54595 43.2 4 41.654 4 39.747H0ZM0 36.253V39.747H4V36.253H0ZM7.45298 28.8C3.33681 28.8 0 32.1368 0 36.253H4C4 34.346 5.54596 32.8 7.45298 32.8V28.8ZM9.89461 22.9054C12.0699 25.0806 10.5293 28.8 7.45299 28.8L7.45298 32.8C14.0929 32.8 17.4182 24.7721 12.723 20.077L9.89461 22.9054ZM9.89461 12.3653C6.98404 15.2758 6.98404 19.9948 9.89461 22.9054L12.723 20.077C11.3746 18.7285 11.3746 16.5422 12.723 15.1937L9.89461 12.3653ZM12.3653 9.89462L9.89461 12.3653L12.723 15.1937L15.1937 12.723L12.3653 9.89462ZM22.9054 9.89462C19.9948 6.98405 15.2758 6.98405 12.3653 9.89462L15.1937 12.723C16.5422 11.3746 18.7285 11.3746 20.077 12.723L22.9054 9.89462ZM28.8 7.45299C28.8 10.5293 25.0806 12.0699 22.9054 9.89462L20.077 12.723C24.7721 17.4182 32.8 14.0929 32.8 7.45299H28.8ZM36.253 0C32.1368 0 28.8 3.33681 28.8 7.45299H32.8C32.8 5.54596 34.346 4 36.253 4V0ZM39.747 0H36.253V4H39.747V0ZM47 38C47 42.9706 42.9706 47 38 47V51C45.1797 51 51 45.1797 51 38H47ZM38 29C42.9706 29 47 33.0294 47 38H51C51 30.8203 45.1797 25 38 25V29ZM29 38C29 33.0294 33.0294 29 38 29V25C30.8203 25 25 30.8203 25 38H29ZM38 47C33.0294 47 29 42.9706 29 38H25C25 45.1797 30.8203 51 38 51V47Z" fill="#6E7494"/>
</svg>
